<svg version="1.1" xmlns="http://www.w3.org/2000/svg" viewBox="0 0 693.8170678366291 513.5800877648471" width="2081.4512035098874" height="1540.7402632945414" filter="invert(93%) hue-rotate(180deg)">
  <!-- svg-source:excalidraw -->
  
  <defs>
    <style class="style-fonts">
      @font-face {
        font-family: "Virgil";
        src: url("https://excalidraw.com/Virgil.woff2");
      }
      @font-face {
        font-family: "Cascadia";
        src: url("https://excalidraw.com/Cascadia.woff2");
      }
    </style>
  </defs>
  <rect x="0" y="0" width="693.8170678366291" height="513.5800877648471" fill="#ffffff"></rect><g stroke-linecap="round" transform="translate(73.94135490896929 171.67001386579818) rotate(0 47.94574996334927 47.94574996334927)"><path d="M0 0 C0 0, 0 0, 0 0 M0 0 C0 0, 0 0, 0 0 M0.13 12.04 C2.38 9.45, 4.63 6.86, 10.63 -0.03 M0.13 12.04 C2.97 8.77, 5.81 5.51, 10.63 -0.03 M0.27 24.08 C5.37 18.21, 10.48 12.34, 21.26 -0.07 M0.27 24.08 C7.8 15.42, 15.33 6.76, 21.26 -0.07 M-0.26 36.88 C10.62 24.36, 21.51 11.84, 31.89 -0.1 M-0.26 36.88 C12.25 22.49, 24.75 8.11, 31.89 -0.1 M-0.12 48.92 C15.02 31.5, 30.16 14.08, 42.52 -0.14 M-0.12 48.92 C13.98 32.69, 28.09 16.47, 42.52 -0.14 M0.01 60.96 C13.94 44.93, 27.87 28.91, 53.15 -0.17 M0.01 60.96 C16.71 41.74, 33.42 22.53, 53.15 -0.17 M0.14 73 C25.12 44.26, 50.11 15.52, 63.78 -0.21 M0.14 73 C24.38 45.12, 48.61 17.25, 63.78 -0.21 M0.28 85.04 C22.04 60.01, 43.8 34.98, 74.41 -0.24 M0.28 85.04 C17.49 65.23, 34.71 45.42, 74.41 -0.24 M1.07 96.33 C32.66 59.98, 64.25 23.64, 85.04 -0.28 M1.07 96.33 C33.13 59.45, 65.19 22.56, 85.04 -0.28 M11.7 96.29 C42.42 60.95, 73.14 25.61, 95.67 -0.31 M11.7 96.29 C37.17 66.99, 62.64 37.69, 95.67 -0.31 M22.33 96.26 C50.25 64.14, 78.17 32.02, 101.71 4.94 M22.33 96.26 C52.63 61.39, 82.94 26.53, 101.71 4.94 M32.3 96.98 C48.8 78, 65.3 59.01, 101.84 16.98 M32.3 96.98 C50.59 75.93, 68.89 54.89, 101.84 16.98 M42.93 96.94 C65.95 70.46, 88.97 43.98, 101.97 29.02 M42.93 96.94 C54.97 83.1, 67 69.25, 101.97 29.02 M53.56 96.91 C67.5 80.87, 81.44 64.84, 101.45 41.82 M53.56 96.91 C64.19 84.68, 74.82 72.45, 101.45 41.82 M64.19 96.87 C78.64 80.26, 93.08 63.64, 101.59 53.86 M64.19 96.87 C73.39 86.29, 82.59 75.7, 101.59 53.86 M74.82 96.84 C83.84 86.46, 92.86 76.09, 101.72 65.9 M74.82 96.84 C81.97 88.62, 89.11 80.4, 101.72 65.9 M85.45 96.81 C89.74 91.87, 94.04 86.93, 101.85 77.94 M85.45 96.81 C90.07 91.5, 94.68 86.19, 101.85 77.94 M0.07 95.95 C0.07 95.95, 0.07 95.95, 0.07 95.95 M0.07 95.95 C0.07 95.95, 0.07 95.95, 0.07 95.95 M12.11 95.82 C7.74 92.02, 3.37 88.22, 0.03 85.32 M12.11 95.82 C8.99 93.11, 5.88 90.4, 0.03 85.32 M24.15 95.68 C15.62 88.27, 7.08 80.85, 0 74.69 M24.15 95.68 C18.73 90.97, 13.3 86.26, 0 74.69 M36.94 96.21 C27.42 87.93, 17.9 79.65, -0.04 64.06 M36.94 96.21 C25.9 86.6, 14.85 77, -0.04 64.06 M48.99 96.07 C35.81 84.62, 22.64 73.18, -0.07 53.43 M48.99 96.07 C30.06 79.62, 11.13 63.17, -0.07 53.43 M61.03 95.94 C39.98 77.65, 18.94 59.35, -0.1 42.8 M61.03 95.94 C42.57 79.9, 24.12 63.86, -0.1 42.8 M73.07 95.81 C54.26 79.46, 35.45 63.1, -0.14 32.17 M73.07 95.81 C49.35 75.19, 25.63 54.57, -0.14 32.17 M85.11 95.67 C64.4 77.68, 43.7 59.68, -0.17 21.54 M85.11 95.67 C56.09 70.45, 27.07 45.22, -0.17 21.54 M96.39 94.89 C72.05 73.73, 47.71 52.57, -0.21 10.91 M96.39 94.89 C57.78 61.32, 19.17 27.76, -0.21 10.91 M96.36 84.25 C57.83 50.76, 19.3 17.27, -0.24 0.28 M96.36 84.25 C71.04 62.24, 45.71 40.23, -0.24 0.28 M96.33 73.62 C76.99 56.82, 57.65 40.01, 5.01 -5.76 M96.33 73.62 C64.51 45.96, 32.69 18.3, 5.01 -5.76 M96.29 62.99 C73.86 43.49, 51.42 23.99, 17.05 -5.89 M96.29 62.99 C73.28 42.99, 50.26 22.98, 17.05 -5.89 M96.26 52.36 C74.8 33.71, 53.34 15.06, 29.09 -6.02 M96.26 52.36 C77.4 35.97, 58.54 19.58, 29.09 -6.02 M96.98 42.39 C75.42 23.65, 53.86 4.91, 41.88 -5.5 M96.98 42.39 C84.68 31.7, 72.39 21.01, 41.88 -5.5 M96.94 31.76 C80.45 17.43, 63.96 3.09, 53.92 -5.63 M96.94 31.76 C84.8 21.21, 72.66 10.65, 53.92 -5.63 M96.91 21.13 C89.35 14.56, 81.8 7.99, 65.96 -5.77 M96.91 21.13 C89.68 14.85, 82.46 8.57, 65.96 -5.77 M96.87 10.5 C92.41 6.62, 87.95 2.74, 78.01 -5.9 M96.87 10.5 C92.85 7, 88.82 3.5, 78.01 -5.9" stroke="#e6498088" stroke-width="1" fill="none"></path><path d="M0 0 C21.89 0, 43.78 0, 95.89 0 M0 0 C19.6 0, 39.21 0, 95.89 0 M95.89 0 C95.89 24.62, 95.89 49.24, 95.89 95.89 M95.89 0 C95.89 37.19, 95.89 74.38, 95.89 95.89 M95.89 95.89 C73.07 95.89, 50.25 95.89, 0 95.89 M95.89 95.89 C73.74 95.89, 51.58 95.89, 0 95.89 M0 95.89 C0 76.09, 0 56.29, 0 0 M0 95.89 C0 62.45, 0 29.01, 0 0" stroke="#000000" stroke-width="2" fill="none"></path></g><g stroke-linecap="round" transform="translate(85.99932160564072 214.55640916062208) rotate(0 5.980558610343053 5.980558610343024)"><path d="M11.96 5.98 C11.96 6.33, 11.93 6.68, 11.87 7.02 C11.81 7.36, 11.72 7.7, 11.6 8.03 C11.48 8.35, 11.33 8.67, 11.16 8.97 C10.99 9.27, 10.78 9.56, 10.56 9.82 C10.34 10.09, 10.09 10.34, 9.82 10.56 C9.56 10.78, 9.27 10.99, 8.97 11.16 C8.67 11.33, 8.35 11.48, 8.03 11.6 C7.7 11.72, 7.36 11.81, 7.02 11.87 C6.68 11.93, 6.33 11.96, 5.98 11.96 C5.63 11.96, 5.28 11.93, 4.94 11.87 C4.6 11.81, 4.26 11.72, 3.94 11.6 C3.61 11.48, 3.29 11.33, 2.99 11.16 C2.69 10.99, 2.4 10.78, 2.14 10.56 C1.87 10.34, 1.62 10.09, 1.4 9.82 C1.18 9.56, 0.97 9.27, 0.8 8.97 C0.63 8.67, 0.48 8.35, 0.36 8.03 C0.24 7.7, 0.15 7.36, 0.09 7.02 C0.03 6.68, 0 6.33, 0 5.98 C0 5.63, 0.03 5.28, 0.09 4.94 C0.15 4.6, 0.24 4.26, 0.36 3.94 C0.48 3.61, 0.63 3.29, 0.8 2.99 C0.97 2.69, 1.18 2.4, 1.4 2.14 C1.62 1.87, 1.87 1.62, 2.14 1.4 C2.4 1.18, 2.69 0.97, 2.99 0.8 C3.29 0.63, 3.61 0.48, 3.94 0.36 C4.26 0.24, 4.6 0.15, 4.94 0.09 C5.28 0.03, 5.63 0, 5.98 0 C6.33 0, 6.68 0.03, 7.02 0.09 C7.36 0.15, 7.7 0.24, 8.03 0.36 C8.35 0.48, 8.67 0.63, 8.97 0.8 C9.27 0.97, 9.56 1.18, 9.82 1.4 C10.09 1.62, 10.34 1.87, 10.56 2.14 C10.78 2.4, 10.99 2.69, 11.16 2.99 C11.33 3.29, 11.48 3.61, 11.6 3.94 C11.72 4.26, 11.81 4.6, 11.87 4.94 C11.93 5.28, 11.95 5.81, 11.96 5.98 C11.98 6.15, 11.98 5.81, 11.96 5.98" stroke="#000000" stroke-width="2" fill="none"></path></g><g stroke-linecap="round" transform="translate(146.49471167181855 214.4482083269432) rotate(0 5.980558610343053 5.980558610343024)"><path d="M11.96 5.98 C11.96 6.33, 11.93 6.68, 11.87 7.02 C11.81 7.36, 11.72 7.7, 11.6 8.03 C11.48 8.35, 11.33 8.67, 11.16 8.97 C10.99 9.27, 10.78 9.56, 10.56 9.82 C10.34 10.09, 10.09 10.34, 9.82 10.56 C9.56 10.78, 9.27 10.99, 8.97 11.16 C8.67 11.33, 8.35 11.48, 8.03 11.6 C7.7 11.72, 7.36 11.81, 7.02 11.87 C6.68 11.93, 6.33 11.96, 5.98 11.96 C5.63 11.96, 5.28 11.93, 4.94 11.87 C4.6 11.81, 4.26 11.72, 3.94 11.6 C3.61 11.48, 3.29 11.33, 2.99 11.16 C2.69 10.99, 2.4 10.78, 2.14 10.56 C1.87 10.34, 1.62 10.09, 1.4 9.82 C1.18 9.56, 0.97 9.27, 0.8 8.97 C0.63 8.67, 0.48 8.35, 0.36 8.03 C0.24 7.7, 0.15 7.36, 0.09 7.02 C0.03 6.68, 0 6.33, 0 5.98 C0 5.63, 0.03 5.28, 0.09 4.94 C0.15 4.6, 0.24 4.26, 0.36 3.94 C0.48 3.61, 0.63 3.29, 0.8 2.99 C0.97 2.69, 1.18 2.4, 1.4 2.14 C1.62 1.87, 1.87 1.62, 2.14 1.4 C2.4 1.18, 2.69 0.97, 2.99 0.8 C3.29 0.63, 3.61 0.48, 3.94 0.36 C4.26 0.24, 4.6 0.15, 4.94 0.09 C5.28 0.03, 5.63 0, 5.98 0 C6.33 0, 6.68 0.03, 7.02 0.09 C7.36 0.15, 7.7 0.24, 8.03 0.36 C8.35 0.48, 8.67 0.63, 8.97 0.8 C9.27 0.97, 9.56 1.18, 9.82 1.4 C10.09 1.62, 10.34 1.87, 10.56 2.14 C10.78 2.4, 10.99 2.69, 11.16 2.99 C11.33 3.29, 11.48 3.61, 11.6 3.94 C11.72 4.26, 11.81 4.6, 11.87 4.94 C11.93 5.28, 11.95 5.81, 11.96 5.98 C11.98 6.15, 11.98 5.81, 11.96 5.98" stroke="#000000" stroke-width="2" fill="none"></path></g><g stroke-linecap="round"><g transform="translate(111.01981548411811 209.1336362599609) rotate(0 1.0555903868549308 10.978083173612845)"><path d="M0 0 C0.38 0.86, 1.76 3.31, 2.26 5.18 C2.76 7.05, 3.07 9.24, 3.01 11.22 C2.95 13.2, 2.57 15.3, 1.92 17.08 C1.27 18.87, -0.44 21.14, -0.91 21.96 M0 0 C0.38 0.86, 1.76 3.31, 2.26 5.18 C2.76 7.05, 3.07 9.24, 3.01 11.22 C2.95 13.2, 2.57 15.3, 1.92 17.08 C1.27 18.87, -0.44 21.14, -0.91 21.96" stroke="#000000" stroke-width="2" fill="none"></path></g></g><mask></mask><g stroke-linecap="round"><g transform="translate(120.68766328604329 200.40043366622018) rotate(89.99999999999994 1.0555903868549308 10.978083173612845)"><path d="M0 0 C0.38 0.86, 1.76 3.31, 2.26 5.18 C2.76 7.05, 3.07 9.24, 3.01 11.22 C2.95 13.2, 2.57 15.3, 1.92 17.08 C1.27 18.87, -0.44 21.14, -0.91 21.96 M0 0 C0.38 0.86, 1.76 3.31, 2.26 5.18 C2.76 7.05, 3.07 9.24, 3.01 11.22 C2.95 13.2, 2.57 15.3, 1.92 17.08 C1.27 18.87, -0.44 21.14, -0.91 21.96" stroke="#000000" stroke-width="2" fill="none"></path></g></g><mask></mask><g stroke-linecap="round"><g transform="translate(129.43154061870234 210.00543913497415) rotate(180 1.0555903868549308 10.978083173612845)"><path d="M0 0 C0.38 0.86, 1.76 3.31, 2.26 5.18 C2.76 7.05, 3.07 9.24, 3.01 11.22 C2.95 13.2, 2.57 15.3, 1.92 17.08 C1.27 18.87, -0.44 21.14, -0.91 21.96 M0 0 C0.38 0.86, 1.76 3.31, 2.26 5.18 C2.76 7.05, 3.07 9.24, 3.01 11.22 C2.95 13.2, 2.57 15.3, 1.92 17.08 C1.27 18.87, -0.44 21.14, -0.91 21.96" stroke="#000000" stroke-width="2" fill="none"></path></g></g><mask></mask><g stroke-linecap="round"><g transform="translate(119.77709254179888 218.7693697629308) rotate(270 1.0555903868549308 10.978083173612845)"><path d="M0 0 C0.38 0.86, 1.76 3.31, 2.26 5.18 C2.76 7.05, 3.07 9.24, 3.01 11.22 C2.95 13.2, 2.57 15.3, 1.92 17.08 C1.27 18.87, -0.44 21.14, -0.91 21.96 M0 0 C0.38 0.86, 1.76 3.31, 2.26 5.18 C2.76 7.05, 3.07 9.24, 3.01 11.22 C2.95 13.2, 2.57 15.3, 1.92 17.08 C1.27 18.87, -0.44 21.14, -0.91 21.96" stroke="#000000" stroke-width="2" fill="none"></path></g></g><mask></mask><g stroke-linecap="round"><g transform="translate(100.94670321926333 220.55872219146534) rotate(0 4.304212844301105 0.07523934272037991)"><path d="M0 0 C2.53 -0.02, 5.05 -0.05, 8.57 -0.08 M0 0 C2.45 -0.02, 4.89 -0.05, 8.57 -0.08 M8.57 -0.08 C7.27 -1.34, 5.96 -2.6, 4.8 -3.73 M8.57 -0.08 C7.7 -0.92, 6.83 -1.77, 4.8 -3.73 M4.8 -3.73 C5.75 -2.81, 6.71 -1.89, 8.61 -0.07 M4.8 -3.73 C5.8 -2.77, 6.81 -1.8, 8.61 -0.07 M8.61 -0.07 C7.73 0.76, 6.86 1.6, 4.47 3.88 M8.61 -0.07 C7.17 1.31, 5.73 2.68, 4.47 3.88" stroke="#000000" stroke-width="2" fill="none"></path></g></g><mask></mask><g stroke-linecap="round"><g transform="translate(134.23696189628618 220.7397621514653) rotate(0 -8.39926453634996 0.07523934272037991)"><path d="M0 0 C2.63 -0.02, 5.25 -0.05, 8.57 -0.08 M0 0 C2.06 -0.02, 4.12 -0.04, 8.57 -0.08 M8.57 -0.08 C7.08 -1.52, 5.59 -2.97, 4.8 -3.73 M8.57 -0.08 C7.12 -1.48, 5.67 -2.89, 4.8 -3.73 M4.8 -3.73 C-3.86 -2.49, -12.52 -1.25, -25.37 0.59 M4.8 -3.73 C-6.63 -2.09, -18.06 -0.46, -25.37 0.59 M-25.37 0.59 C-16.88 1.53, -8.4 2.46, 4.47 3.88 M-25.37 0.59 C-17.31 1.48, -9.25 2.37, 4.47 3.88" stroke="#000000" stroke-width="2" fill="none"></path></g></g><mask></mask><g stroke-linecap="round"><g transform="translate(91.92747615211613 214.62097357384903) rotate(0 30.46271565472057 -12.40489899268357)"><path d="M0 0 C0.63 -1.88, 1.74 -8.07, 3.77 -11.29 C5.8 -14.5, 9.11 -17.21, 12.19 -19.3 C15.26 -21.4, 18.88 -22.92, 22.24 -23.86 C25.6 -24.8, 28.73 -25.25, 32.33 -24.97 C35.93 -24.68, 40.51 -23.59, 43.84 -22.15 C47.16 -20.71, 49.86 -18.69, 52.27 -16.3 C54.68 -13.91, 56.87 -10.56, 58.31 -7.81 C59.75 -5.05, 60.49 -1.1, 60.93 0.24 M0 0 C0.63 -1.88, 1.74 -8.07, 3.77 -11.29 C5.8 -14.5, 9.11 -17.21, 12.19 -19.3 C15.26 -21.4, 18.88 -22.92, 22.24 -23.86 C25.6 -24.8, 28.73 -25.25, 32.33 -24.97 C35.93 -24.68, 40.51 -23.59, 43.84 -22.15 C47.16 -20.71, 49.86 -18.69, 52.27 -16.3 C54.68 -13.91, 56.87 -10.56, 58.31 -7.81 C59.75 -5.05, 60.49 -1.1, 60.93 0.24" stroke="#000000" stroke-width="2" fill="none"></path></g></g><mask></mask><g stroke-linecap="round"><g transform="translate(91.55373196615096 250.99618614284333) rotate(180 30.46271565472057 -12.40489899268357)"><path d="M0 0 C0.63 -1.88, 1.74 -8.07, 3.77 -11.29 C5.8 -14.5, 9.11 -17.21, 12.19 -19.3 C15.26 -21.4, 18.88 -22.92, 22.24 -23.86 C25.6 -24.8, 28.73 -25.25, 32.33 -24.97 C35.93 -24.68, 40.51 -23.59, 43.84 -22.15 C47.16 -20.71, 49.86 -18.69, 52.27 -16.3 C54.68 -13.91, 56.87 -10.56, 58.31 -7.81 C59.75 -5.05, 60.49 -1.1, 60.93 0.24 M0 0 C0.63 -1.88, 1.74 -8.07, 3.77 -11.29 C5.8 -14.5, 9.11 -17.21, 12.19 -19.3 C15.26 -21.4, 18.88 -22.92, 22.24 -23.86 C25.6 -24.8, 28.73 -25.25, 32.33 -24.97 C35.93 -24.68, 40.51 -23.59, 43.84 -22.15 C47.16 -20.71, 49.86 -18.69, 52.27 -16.3 C54.68 -13.91, 56.87 -10.56, 58.31 -7.81 C59.75 -5.05, 60.49 -1.1, 60.93 0.24" stroke="#000000" stroke-width="2" fill="none"></path></g></g><mask></mask><g transform="translate(93.15538877911672 273.6834711530653) rotate(0 29.04710983353948 18.619942200986856)"><text x="0" y="26.239884401973697" font-family="Virgil, Segoe UI Emoji" font-size="29.468426762257753px" fill="#000000" text-anchor="start" style="white-space: pre;" direction="ltr">SQS</text></g><g stroke-linecap="round" transform="translate(531.9288389683152 10) rotate(0 75.94411443415697 211.38297823859853)"><path d="M7.86 8.16 C7.86 8.16, 7.86 8.16, 7.86 8.16 M7.86 8.16 C7.86 8.16, 7.86 8.16, 7.86 8.16 M2.35 20.59 C6.26 15.14, 15.03 9.8, 18.1 2.48 M2.35 20.59 C7.01 16.76, 10.96 13.14, 18.1 2.48 M2.75 26.24 C8.17 19.49, 19.37 8.88, 24.4 1.33 M2.75 26.24 C11.25 16.14, 16.6 9.24, 24.4 1.33 M2.48 32.64 C10.38 24.16, 18.94 9.87, 30.7 0.18 M2.48 32.64 C11.72 22.51, 16.61 16.68, 30.7 0.18 M2.88 38.28 C11.66 25.3, 20.08 16.4, 34.37 2.05 M2.88 38.28 C9.84 26.81, 16.51 18.25, 34.37 2.05 M2.62 44.68 C10.61 38.13, 18.35 21.89, 39.36 2.41 M2.62 44.68 C13.39 34.25, 22.4 21.23, 39.36 2.41 M2.36 51.07 C8.47 41.31, 23.99 26.25, 45 2.02 M2.36 51.07 C12.94 38.79, 25.13 28.11, 45 2.02 M2.75 56.72 C15.26 43.75, 31.05 21.62, 49.99 2.38 M2.75 56.72 C20.57 36.89, 40.15 15.37, 49.99 2.38 M2.49 63.11 C14.49 42.93, 33.68 26.64, 55.63 1.98 M2.49 63.11 C21.5 41.16, 39.28 19.53, 55.63 1.98 M2.88 68.76 C22.57 44.81, 37.45 32.04, 60.62 2.34 M2.88 68.76 C24.41 46.48, 45.58 20.34, 60.62 2.34 M2.62 75.16 C19.1 57.5, 30.92 45.61, 66.26 1.95 M2.62 75.16 C18.14 55.27, 31.54 38.63, 66.26 1.95 M2.36 81.55 C28.22 54.65, 55.93 26.74, 71.25 2.31 M2.36 81.55 C26.73 47.95, 52.1 20.37, 71.25 2.31 M2.76 87.2 C28.45 64.9, 43.48 39.3, 76.89 1.91 M2.76 87.2 C29.28 57.85, 52.91 29.32, 76.89 1.91 M2.49 93.59 C35.32 55.37, 67.63 18.59, 81.88 2.27 M2.49 93.59 C18.77 75.02, 35.26 55.29, 81.88 2.27 M2.23 99.99 C26.68 70.34, 58.6 35.67, 86.86 2.63 M2.23 99.99 C19.54 78.74, 38.25 56.26, 86.86 2.63 M2.63 105.64 C24.19 76.46, 49.56 50.03, 92.51 2.24 M2.63 105.64 C29.82 76.99, 52.91 48.95, 92.51 2.24 M2.37 112.03 C29.51 84.79, 55.34 50.98, 97.49 2.6 M2.37 112.03 C37.41 70.32, 75.14 30.37, 97.49 2.6 M2.76 117.68 C30.36 78.04, 58.66 48.48, 103.14 2.21 M2.76 117.68 C27.43 90.16, 52.71 61.8, 103.14 2.21 M2.5 124.07 C29.02 89.3, 62.52 59.55, 108.12 2.57 M2.5 124.07 C40.64 76.47, 83.68 30.81, 108.12 2.57 M2.24 130.47 C33.75 94.12, 60.28 56.59, 113.77 2.17 M2.24 130.47 C42.04 84.13, 79.84 40.71, 113.77 2.17 M2.63 136.11 C39.23 98.65, 71.08 60.24, 118.76 2.53 M2.63 136.11 C26.5 104.96, 50.32 77.28, 118.76 2.53 M2.37 142.51 C32.25 117.54, 51.49 84.14, 123.74 2.89 M2.37 142.51 C42.4 99.62, 82.29 56.1, 123.74 2.89 M2.77 148.16 C51.53 93.76, 100.3 36.2, 129.39 2.5 M2.77 148.16 C37.82 111.27, 68.04 72.2, 129.39 2.5 M2.5 154.55 C47.28 104.43, 85.08 60.26, 133.06 4.37 M2.5 154.55 C39.14 118.6, 70.3 80.65, 133.06 4.37 M2.24 160.95 C36.49 125.78, 70.05 87.58, 137.39 5.48 M2.24 160.95 C52.72 103.3, 106.25 46.16, 137.39 5.48 M2.64 166.59 C54.14 114.21, 98.85 62.29, 141.07 7.35 M2.64 166.59 C41.12 121.2, 80.14 76.21, 141.07 7.35 M2.38 172.99 C45.81 114.99, 97.66 59.78, 144.74 9.22 M2.38 172.99 C28.04 140.29, 59.28 105.45, 144.74 9.22 M2.11 179.39 C36.34 147.01, 64.62 111.95, 147.1 12.6 M2.11 179.39 C29.39 145.33, 58.1 112.07, 147.1 12.6 M2.51 185.03 C41.71 144.03, 79.28 102.52, 149.47 15.98 M2.51 185.03 C35.7 144.18, 72.39 103.45, 149.47 15.98 M2.25 191.43 C38.78 145.36, 78.45 100.86, 151.83 19.36 M2.25 191.43 C30.52 159.51, 61.53 122.25, 151.83 19.36 M2.64 197.07 C31.86 158.96, 64.37 115.98, 152.22 25 M2.64 197.07 C58.48 128.53, 113.97 66.28, 152.22 25 M2.38 203.47 C56.79 141.11, 112.76 79.19, 153.27 29.89 M2.38 203.47 C48.38 151.66, 91.24 103.97, 153.27 29.89 M2.12 209.87 C37.59 174.27, 64.06 138.95, 154.33 34.78 M2.12 209.87 C58.48 147.07, 113.52 86.17, 154.33 34.78 M2.51 215.51 C58.43 149.92, 115.17 86.12, 154.72 40.42 M2.51 215.51 C49.79 159.31, 98.4 103.61, 154.72 40.42 M2.25 221.91 C50.83 157.82, 105.73 93.51, 154.46 46.82 M2.25 221.91 C53.44 162.8, 104.32 107.3, 154.46 46.82 M2.65 227.55 C59.58 161.86, 112.82 99.76, 154.85 52.46 M2.65 227.55 C55.57 163.57, 107.17 100.87, 154.85 52.46 M2.39 233.95 C60.56 164.55, 123.08 96.18, 154.59 58.86 M2.39 233.95 C44.82 183.75, 86.24 136.17, 154.59 58.86 M2.12 240.35 C50.2 187.57, 97.55 135.25, 154.33 65.26 M2.12 240.35 C45.38 190.9, 88.47 140.1, 154.33 65.26 M2.52 245.99 C32.64 211.77, 66.27 168.69, 154.72 70.9 M2.52 245.99 C37.04 208.6, 68.29 170.08, 154.72 70.9 M2.26 252.39 C34.11 214.68, 64.02 182.92, 154.46 77.3 M2.26 252.39 C38.4 209.24, 76.43 164.76, 154.46 77.3 M2 258.79 C50.58 206.08, 97.61 148.31, 154.86 82.94 M2 258.79 C57.61 193.52, 110.32 130.92, 154.86 82.94 M2.39 264.43 C35.68 224.15, 74.4 182.22, 154.6 89.34 M2.39 264.43 C61.91 196.27, 120.48 130.48, 154.6 89.34 M2.13 270.83 C49.02 214.12, 97.34 157.36, 154.33 95.74 M2.13 270.83 C56.4 209.24, 112.81 143.38, 154.33 95.74 M2.52 276.47 C44.94 225.41, 95.18 167.55, 154.73 101.38 M2.52 276.47 C38.84 237.75, 74.8 194.87, 154.73 101.38 M2.26 282.87 C43.61 237.51, 85.07 192.88, 154.47 107.78 M2.26 282.87 C56.97 223.52, 109.3 163.27, 154.47 107.78 M2 289.27 C53.73 228.99, 111.39 171.78, 154.86 113.42 M2 289.27 C35.29 253.3, 69.23 214.92, 154.86 113.42 M2.4 294.91 C57.92 230.11, 107.35 174.44, 154.6 119.82 M2.4 294.91 C57.12 232.36, 113.79 164.62, 154.6 119.82 M2.13 301.31 C39.37 261.92, 75.31 215.82, 154.34 126.22 M2.13 301.31 C56.07 241.65, 111.26 179.52, 154.34 126.22 M2.53 306.95 C51.18 250.43, 102.22 186.88, 154.73 131.86 M2.53 306.95 C60.76 237.93, 119.98 171.51, 154.73 131.86 M2.27 313.35 C40.86 270.94, 79.62 227.24, 154.47 138.26 M2.27 313.35 C43.03 261.51, 82.46 215.75, 154.47 138.26 M2.01 319.75 C63.95 248.97, 126.08 174.96, 154.87 143.9 M2.01 319.75 C55.14 255.37, 112.38 192.61, 154.87 143.9 M2.4 325.39 C39.15 290.8, 73.05 256.44, 154.61 150.3 M2.4 325.39 C43.73 278.88, 81.57 232.31, 154.61 150.3 M2.14 331.79 C35.85 290.35, 75.43 246.07, 154.34 156.69 M2.14 331.79 C41.99 283.87, 82.65 237.75, 154.34 156.69 M2.53 337.43 C53.94 274.66, 107.18 219.9, 154.74 162.34 M2.53 337.43 C33.01 302.84, 64.15 270.11, 154.74 162.34 M2.27 343.83 C61.45 276.34, 121.25 214.02, 154.48 168.74 M2.27 343.83 C44.37 292.18, 89.59 238.43, 154.48 168.74 M2.01 350.23 C33.13 312.93, 66.78 273.77, 154.87 174.38 M2.01 350.23 C34.14 311.96, 65.18 272.97, 154.87 174.38 M2.4 355.87 C47.71 307.14, 83.04 258.17, 154.61 180.78 M2.4 355.87 C50.28 304.51, 95.56 251.81, 154.61 180.78 M2.14 362.27 C33.9 322.7, 63.28 286.22, 154.35 187.17 M2.14 362.27 C42.13 320.56, 81.12 275.39, 154.35 187.17 M1.88 368.66 C61.75 302.19, 116.54 239.7, 154.74 192.82 M1.88 368.66 C50.75 314.24, 100.66 254.12, 154.74 192.82 M2.28 374.31 C44.37 328.8, 82.02 286.24, 154.48 199.22 M2.28 374.31 C43.94 329.3, 84.7 282.78, 154.48 199.22 M2.02 380.71 C53.25 321.88, 99.77 272.22, 154.88 204.86 M2.02 380.71 C40.56 333.53, 77.99 285.33, 154.88 204.86 M2.41 386.35 C38.88 341.45, 83.39 293.26, 154.62 211.26 M2.41 386.35 C41.78 339.34, 80.7 293.85, 154.62 211.26 M2.15 392.75 C45.46 344.32, 92.83 292.43, 154.35 217.65 M2.15 392.75 C34.19 358.75, 65.35 322.79, 154.35 217.65 M3.2 397.63 C49.57 337.72, 98.61 283.32, 154.75 223.3 M3.2 397.63 C43.44 349.88, 83.24 304.47, 154.75 223.3 M2.28 404.79 C41.1 361.94, 87.75 310.71, 154.49 229.69 M2.28 404.79 C45.92 349.75, 90.83 299.36, 154.49 229.69 M4.64 408.17 C48.65 354.63, 92.08 304.38, 154.88 235.34 M4.64 408.17 C50.93 354.56, 97.81 300.42, 154.88 235.34 M7.01 411.55 C35.45 379.75, 70.61 342.65, 154.62 241.74 M7.01 411.55 C51.32 364.73, 95.06 313.96, 154.62 241.74 M9.37 414.92 C44.01 384.01, 69.58 342.59, 154.36 248.13 M9.37 414.92 C45.49 371.57, 85.3 326.7, 154.36 248.13 M12.39 417.55 C49.71 379.55, 81.5 341.31, 154.75 253.78 M12.39 417.55 C65.7 357.31, 118.2 294.46, 154.75 253.78 M15.41 420.17 C57.47 373.69, 97.89 323.77, 154.49 260.17 M15.41 420.17 C46 382.81, 76.71 343.87, 154.49 260.17 M19.08 422.04 C56.34 386.64, 91.16 342.82, 154.89 265.82 M19.08 422.04 C66 373.75, 109.29 322.8, 154.89 265.82 M23.41 423.16 C65.68 374, 107.68 321.3, 154.63 272.21 M23.41 423.16 C66.64 372.56, 112.3 321.85, 154.63 272.21 M27.09 425.03 C65 382.63, 104.38 331.74, 154.36 278.61 M27.09 425.03 C50.11 395.5, 80.08 362.27, 154.36 278.61 M32.73 424.63 C62.33 384.78, 95.92 346.45, 154.76 284.26 M32.73 424.63 C68.52 382.43, 104.8 341.79, 154.76 284.26 M37.72 424.99 C69.27 388.67, 102.04 346.17, 154.5 290.65 M37.72 424.99 C66.65 388.79, 100.72 348.68, 154.5 290.65 M43.36 424.6 C72.93 390.43, 97.79 356.21, 154.89 296.3 M43.36 424.6 C77.92 389.25, 114.2 350.49, 154.89 296.3 M48.35 424.96 C86.58 378.17, 128.49 328, 154.63 302.69 M48.35 424.96 C90.56 376.46, 132.68 324.81, 154.63 302.69 M53.99 424.56 C77.5 399.54, 98.62 370.92, 154.37 309.09 M53.99 424.56 C89.56 383.94, 122.08 344.4, 154.37 309.09 M58.98 424.92 C80.7 397.02, 104.49 372.51, 154.76 314.74 M58.98 424.92 C87 392.63, 111.41 363.02, 154.76 314.74 M63.97 425.28 C85.29 408.61, 100.69 384.6, 154.5 321.13 M63.97 425.28 C83.52 402.64, 103.98 378.74, 154.5 321.13 M69.61 424.89 C99.48 383.13, 134.84 352.04, 154.9 326.78 M69.61 424.89 C92.98 399.74, 113.84 372.47, 154.9 326.78 M74.6 425.25 C102.09 398.61, 128.36 367.19, 154.63 333.17 M74.6 425.25 C93.12 404.91, 108.98 385.77, 154.63 333.17 M80.24 424.85 C111.09 389.56, 135.59 362.29, 154.37 339.57 M80.24 424.85 C102.17 397.86, 123.38 372.48, 154.37 339.57 M85.23 425.21 C110.6 392.78, 133.22 367.24, 154.77 345.21 M85.23 425.21 C110.95 396.22, 139.83 364.5, 154.77 345.21 M90.87 424.82 C109.39 401.84, 137.2 374.28, 154.51 351.61 M90.87 424.82 C112.06 396.98, 139.21 367.69, 154.51 351.61 M95.86 425.18 C119 397.67, 141.32 373.07, 154.9 357.26 M95.86 425.18 C118.91 396.59, 143.41 369.5, 154.9 357.26 M101.5 424.78 C115.63 408.66, 123.43 398.89, 154.64 363.65 M101.5 424.78 C118.65 405.67, 134.03 387.75, 154.64 363.65 M106.49 425.15 C125.55 407.47, 142.89 386.83, 154.38 370.05 M106.49 425.15 C126.93 404.3, 143.76 383.4, 154.38 370.05 M111.47 425.51 C124.58 414.15, 136.19 398.78, 154.77 375.69 M111.47 425.51 C125.21 410.86, 138.38 398.06, 154.77 375.69 M117.12 425.11 C127.5 418.43, 135.48 404.37, 154.51 382.09 M117.12 425.11 C130.48 412.85, 139.71 396.55, 154.51 382.09 M122.76 424.72 C134.41 416.22, 138.22 408.93, 152.28 390.75 M122.76 424.72 C127.4 418.27, 136.09 409.35, 152.28 390.75 M128.4 424.32 C135.9 416.08, 139.69 408.13, 150.05 399.42 M128.4 424.32 C136.44 417.8, 143.27 406.6, 150.05 399.42 M135.36 422.42 C140.37 413.71, 140.54 412.36, 148.48 407.32 M135.36 422.42 C140.96 418.84, 142.73 411.64, 148.48 407.32 M12.62 418.37 C12.62 418.37, 12.62 418.37, 12.62 418.37 M12.62 418.37 C12.62 418.37, 12.62 418.37, 12.62 418.37 M22.04 421.26 C16.92 416.44, 13.62 415.25, 2.41 404.2 M22.04 421.26 C18.47 416.9, 15.77 414.07, 2.41 404.2 M26.92 420.21 C17.18 415.39, 14.11 406.36, 1.26 397.9 M26.92 420.21 C20.9 414.63, 12.12 410.25, 1.26 397.9 M32.57 419.81 C20.14 411.51, 12.71 402.3, 0.87 392.26 M32.57 419.81 C22.15 410.41, 15.22 403.74, 0.87 392.26 M38.97 420.07 C28.11 406.34, 14.94 403.3, 1.99 387.93 M38.97 420.07 C31.26 411.69, 21.38 405.92, 1.99 387.93 M44.61 419.68 C31.39 404.29, 16.03 393.71, 2.35 382.94 M44.61 419.68 C34.64 411.99, 27.47 405.26, 2.35 382.94 M51.01 419.94 C41.07 405.02, 23.34 396.25, 1.95 377.3 M51.01 419.94 C31.95 404.11, 10.78 386.42, 1.95 377.3 M57.4 420.2 C39.67 406.56, 32.7 397.77, 2.31 372.31 M57.4 420.2 C38.19 402.74, 23.91 390.37, 2.31 372.31 M63.05 419.81 C40.98 396.76, 13.03 377.75, 1.92 366.67 M63.05 419.81 C44.47 403.51, 29.19 387.25, 1.92 366.67 M69.45 420.07 C45.84 401.14, 24.35 385, 2.28 361.68 M69.45 420.07 C53.94 409.11, 42.27 394.92, 2.28 361.68 M75.84 420.33 C61.44 399.24, 41.71 387.35, 2.64 356.69 M75.84 420.33 C61.31 404.48, 44.36 391.44, 2.64 356.69 M81.49 419.93 C57.86 396.85, 41.56 381.33, 2.24 351.05 M81.49 419.93 C55.42 395.69, 29.33 371.79, 2.24 351.05 M87.88 420.2 C68.4 407.83, 53.28 386.18, 2.6 346.06 M87.88 420.2 C59.79 398.66, 32.35 374.64, 2.6 346.06 M94.28 420.46 C66.28 396.63, 32.7 366.85, 2.21 340.42 M94.28 420.46 C63.34 394.26, 32.93 368.42, 2.21 340.42 M99.92 420.06 C80.39 397.31, 60.08 383.54, 2.57 335.43 M99.92 420.06 C60.83 387.9, 26.4 356.41, 2.57 335.43 M106.32 420.32 C73.27 392.24, 46.42 362.84, 2.17 329.79 M106.32 420.32 C72.64 392.15, 40.57 360.65, 2.17 329.79 M112.72 420.59 C68.01 386.64, 26.15 346.67, 2.53 324.8 M112.72 420.59 C71.73 384.77, 32.32 351.07, 2.53 324.8 M120.63 422.16 C70.17 380.35, 27.95 339.67, 2.14 319.16 M120.63 422.16 C77.75 384.35, 34.71 348.62, 2.14 319.16 M125.52 421.11 C75.57 378.16, 28.03 338.85, 2.5 314.17 M125.52 421.11 C84.21 389.07, 42.29 354.32, 2.5 314.17 M131.16 420.71 C81.33 379.18, 35.85 331.28, 2.1 308.53 M131.16 420.71 C103.19 395.63, 78.22 374.49, 2.1 308.53 M135.29 419.01 C99.96 386.09, 60.65 349.55, 2.46 303.54 M135.29 419.01 C100.27 387.43, 62.95 353.4, 2.46 303.54 M138.67 416.64 C103.86 388.08, 76.54 362.06, 2.07 297.9 M138.67 416.64 C109.96 390.39, 80.26 368.07, 2.07 297.9 M142.05 414.28 C100.04 368.87, 51.28 326.67, 2.43 292.91 M142.05 414.28 C101.55 378.7, 58.03 342.09, 2.43 292.91 M144.67 411.26 C112.14 382.14, 71.71 353.19, 2.03 287.27 M144.67 411.26 C94.5 365.44, 39.98 316.59, 2.03 287.27 M148.05 408.9 C103.52 370.2, 50.84 327.02, 2.39 282.28 M148.05 408.9 C103.11 369.17, 56.11 329.96, 2.39 282.28 M149.17 404.57 C92.61 357.99, 43.27 312.18, 2.75 277.29 M149.17 404.57 C108.51 372.35, 69.55 336.24, 2.75 277.29 M150.28 400.24 C104.54 363.78, 64.6 335.96, 2.36 271.65 M150.28 400.24 C91.79 346.77, 36.06 294.6, 2.36 271.65 M151.4 395.91 C94.18 342.99, 33.7 298.62, 2.72 266.66 M151.4 395.91 C97.82 349.86, 45.08 307.65, 2.72 266.66 M152.51 391.58 C107.14 351.41, 54.9 309.88, 2.33 261.02 M152.51 391.58 C107.26 348.99, 62.48 309.13, 2.33 261.02 M154.38 387.9 C117.17 358.22, 81.3 329.37, 2.69 256.03 M154.38 387.9 C112.39 355.46, 70.84 319.54, 2.69 256.03 M154.74 382.91 C98.49 330.01, 33.97 278.04, 2.29 250.39 M154.74 382.91 C120 352.22, 85.51 324.09, 2.29 250.39 M154.35 377.27 C106.41 335.59, 59.8 298.78, 2.65 245.4 M154.35 377.27 C111.6 339.96, 65.03 298.62, 2.65 245.4 M154.71 372.28 C121.89 345.04, 87.58 316.97, 2.26 239.76 M154.71 372.28 C105.13 327.62, 55.02 285.26, 2.26 239.76 M154.31 366.64 C100.06 317.19, 36.31 266.93, 2.62 234.77 M154.31 366.64 C98.65 316.1, 44.33 268.57, 2.62 234.77 M154.67 361.65 C111.96 327.41, 68.38 293, 2.22 229.13 M154.67 361.65 C116.85 325.4, 79.06 292.46, 2.22 229.13 M154.28 356.01 C114.83 318.01, 68.48 286.16, 2.58 224.14 M154.28 356.01 C97.07 303.51, 42.86 254.21, 2.58 224.14 M154.64 351.02 C118.31 314.43, 77.05 288.68, 2.19 218.5 M154.64 351.02 C122.26 316.3, 87.73 287.42, 2.19 218.5 M154.24 345.38 C106.64 304.35, 58.74 269.96, 2.55 213.51 M154.24 345.38 C108.91 303.3, 62.29 262.13, 2.55 213.51 M154.6 340.39 C103.22 290.91, 46.45 250.65, 2.15 207.87 M154.6 340.39 C103.38 297.09, 52.72 250.35, 2.15 207.87 M154.21 334.75 C119.5 309.03, 92.41 280.7, 2.51 202.88 M154.21 334.75 C103.4 288.17, 51.7 244.46, 2.51 202.88 M154.57 329.76 C122.38 297.73, 91.1 271.8, 2.87 197.9 M154.57 329.76 C115.22 293.83, 76.11 258.56, 2.87 197.9 M154.18 324.12 C112.79 287.42, 68.62 249.07, 2.48 192.25 M154.18 324.12 C115.12 290.3, 75.24 258.65, 2.48 192.25 M154.54 319.13 C89.89 270.02, 35 216.92, 2.84 187.27 M154.54 319.13 C101.63 274, 52.95 233.12, 2.84 187.27 M154.14 313.49 C124.33 286.65, 88.48 258.38, 2.44 181.62 M154.14 313.49 C107.31 274.34, 57.63 231.4, 2.44 181.62 M154.5 308.5 C109.29 271.15, 71.08 234.17, 2.8 176.64 M154.5 308.5 C113.73 271.82, 73.68 238.4, 2.8 176.64 M154.11 302.86 C119.27 272.72, 85.98 242.15, 2.41 170.99 M154.11 302.86 C98.9 253.78, 39.78 205.65, 2.41 170.99 M154.47 297.87 C91.55 247.37, 35.56 192.27, 2.77 166.01 M154.47 297.87 C113.1 262.8, 74.43 227.38, 2.77 166.01 M154.07 292.23 C102.05 245.2, 47.04 197.16, 2.38 160.36 M154.07 292.23 C108.81 254.31, 65.97 215.3, 2.38 160.36 M154.43 287.24 C117.8 251.52, 75.96 216.01, 2.74 155.38 M154.43 287.24 C105.82 241.22, 58.8 202.07, 2.74 155.38 M154.04 281.6 C120.37 252.63, 94 225.2, 2.34 149.73 M154.04 281.6 C92.9 226.91, 31.39 174.23, 2.34 149.73 M154.4 276.61 C95.29 227.86, 39.55 178.67, 2.7 144.75 M154.4 276.61 C118.75 245.49, 81.32 213.73, 2.7 144.75 M154 270.97 C98.15 224.33, 48.8 173.09, 2.31 139.1 M154 270.97 C124.6 243.93, 91.53 216.37, 2.31 139.1 M154.36 265.98 C97.22 217.17, 43.15 166.05, 2.67 134.12 M154.36 265.98 C116.73 231.99, 77.2 197.09, 2.67 134.12 M154.72 261 C98.96 211, 49.8 165.49, 2.27 128.47 M154.72 261 C110.75 222.38, 68.8 181.3, 2.27 128.47 M154.33 255.35 C109.34 214.43, 59.26 168.69, 2.63 123.49 M154.33 255.35 C118.2 218.45, 77.76 186.93, 2.63 123.49 M154.69 250.37 C107.67 211.85, 63.31 171.97, 2.99 118.5 M154.69 250.37 C122.66 222.4, 91.65 191.84, 2.99 118.5 M154.29 244.72 C95.75 190.2, 33.7 143.99, 2.6 112.86 M154.29 244.72 C101.55 201.38, 50.95 156.32, 2.6 112.86 M154.65 239.74 C109.26 196.01, 57.97 155.44, 2.96 107.87 M154.65 239.74 C94.52 184.48, 32.18 134.09, 2.96 107.87 M154.26 234.09 C125.28 202.83, 90.33 176.46, 2.56 102.22 M154.26 234.09 C122.48 207.92, 91.68 180, 2.56 102.22 M154.62 229.11 C104.28 193.36, 60.34 148.65, 2.92 97.24 M154.62 229.11 C114.57 197.05, 76.05 160.6, 2.92 97.24 M154.23 223.46 C107.25 175.3, 52.73 136.95, 2.53 91.59 M154.23 223.46 C119.45 194.82, 86.45 165.52, 2.53 91.59 M154.59 218.48 C114.5 180.18, 77.04 150.52, 2.89 86.61 M154.59 218.48 C112.05 179.98, 69.08 145.19, 2.89 86.61 M154.19 212.83 C116.26 178.55, 72.45 143.54, 2.49 80.96 M154.19 212.83 C106.93 173, 54.63 127.66, 2.49 80.96 M154.55 207.85 C120.53 177.58, 84.49 143.43, 2.85 75.98 M154.55 207.85 C105.85 164.42, 59.14 123.6, 2.85 75.98 M154.16 202.2 C100.14 154.48, 49.56 111.77, 2.46 70.33 M154.16 202.2 C103.52 154.07, 49.85 112.13, 2.46 70.33 M154.52 197.22 C123.59 165.26, 83.53 136.34, 2.82 65.35 M154.52 197.22 C111.23 163.12, 72.25 124.25, 2.82 65.35 M154.12 191.57 C111.36 151.09, 69.14 116.99, 2.43 59.7 M154.12 191.57 C115.21 153.67, 71.86 117.43, 2.43 59.7 M154.48 186.59 C124.42 155.13, 92.65 130.56, 2.79 54.72 M154.48 186.59 C110.73 143.94, 60.47 101.03, 2.79 54.72 M154.09 180.94 C108.25 138.97, 63.69 102.86, 2.39 49.07 M154.09 180.94 C100.98 133.61, 46.39 87.35, 2.39 49.07 M154.45 175.96 C104.54 129.23, 55.88 88.88, 2.75 44.09 M154.45 175.96 C100.4 126.2, 44.57 78.74, 2.75 44.09 M154.05 170.31 C119.02 137.91, 78.66 104.05, 3.11 39.1 M154.05 170.31 C110.96 132.74, 67.03 97.14, 3.11 39.1 M154.41 165.33 C100.77 116.64, 51.35 77.12, 2.72 33.46 M154.41 165.33 C120.91 135.22, 87.82 107.67, 2.72 33.46 M154.02 159.68 C104.97 119.93, 56.84 72.03, 3.08 28.47 M154.02 159.68 C101.13 115.43, 52.17 68.2, 3.08 28.47 M154.38 154.7 C107.35 115.28, 64.72 80.33, 1.93 22.17 M154.38 154.7 C115.62 120.29, 71.91 83.1, 1.93 22.17 M154.74 149.71 C105.64 101.6, 55.29 59.12, 3.8 18.5 M154.74 149.71 C118.53 116.81, 80.94 83.32, 3.8 18.5 M154.34 144.07 C109.92 106.16, 71.8 71.7, 5.67 14.82 M154.34 144.07 C99.42 98.86, 46.69 49.44, 5.67 14.82 M154.7 139.08 C115.6 105.89, 82.24 72.77, 7.54 11.15 M154.7 139.08 C107.66 97.27, 58.06 55.04, 7.54 11.15 M154.31 133.43 C98.62 82.54, 45.32 36.9, 8.65 6.82 M154.31 133.43 C100.12 83.55, 48.83 36.82, 8.65 6.82 M154.67 128.45 C97.48 82.43, 41.51 34.25, 12.78 5.11 M154.67 128.45 C103.87 79.52, 50.35 32.15, 12.78 5.11 M154.27 122.8 C102.14 75.76, 49.34 32.23, 16.16 2.75 M154.27 122.8 C103.23 78.27, 57.02 39.39, 16.16 2.75 M154.64 117.82 C116.55 90.54, 84.09 56.58, 19.54 0.38 M154.64 117.82 C103.17 72.35, 50.32 31.29, 19.54 0.38 M154.24 112.17 C120.92 79.56, 80.81 49.35, 24.43 -0.67 M154.24 112.17 C128.51 90.25, 101.42 64.92, 24.43 -0.67 M154.6 107.19 C103.38 68.25, 57.33 28.29, 30.07 -1.06 M154.6 107.19 C108.39 68.06, 66.47 30.31, 30.07 -1.06 M154.21 101.54 C121.49 78.41, 90.52 45.02, 34.21 -2.77 M154.21 101.54 C119.6 70.17, 86.9 42.48, 34.21 -2.77 M154.57 96.56 C111.04 59.99, 66.1 24.8, 40.6 -2.51 M154.57 96.56 C115.91 62.02, 76.08 25.92, 40.6 -2.51 M154.17 90.91 C120.18 66.92, 86.59 37.54, 46.25 -2.9 M154.17 90.91 C118.81 57.29, 85.42 28.09, 46.25 -2.9 M154.53 85.93 C122.28 55.63, 93.78 30.55, 52.65 -2.64 M154.53 85.93 C132.09 65.38, 112.15 45.55, 52.65 -2.64 M154.14 80.28 C128.53 56.96, 96.22 30.41, 59.04 -2.38 M154.14 80.28 C122.71 54.05, 94.36 28.44, 59.04 -2.38 M154.5 75.3 C117.08 45.8, 89.66 17.33, 64.69 -2.77 M154.5 75.3 C130.49 53.44, 105.41 29.21, 64.69 -2.77 M154.1 69.65 C118.25 47.02, 88.5 13.8, 71.08 -2.51 M154.1 69.65 C129.3 45.96, 105.24 26.42, 71.08 -2.51 M154.46 64.67 C124.08 41.81, 95.74 15.99, 77.48 -2.25 M154.46 64.67 C135.75 50.63, 121.26 33.85, 77.48 -2.25 M154.07 59.02 C127.14 32.95, 104.09 17.93, 83.13 -2.65 M154.07 59.02 C135.42 42.47, 119.78 28.26, 83.13 -2.65 M154.43 54.04 C141.56 41.93, 125.01 24.59, 89.52 -2.38 M154.43 54.04 C138.66 42.83, 125.25 29.42, 89.52 -2.38 M154.03 48.39 C132.77 30.57, 115.09 14.8, 95.92 -2.12 M154.03 48.39 C141.08 37.32, 122.78 24.51, 95.92 -2.12 M154.39 43.41 C131.66 27.5, 117.57 14.26, 101.56 -2.52 M154.39 43.41 C142.69 32.15, 128.51 20.7, 101.56 -2.52 M154.75 38.42 C136.93 24.72, 120.33 11.62, 107.96 -2.26 M154.75 38.42 C137.03 24.07, 118.68 6.21, 107.96 -2.26 M152.85 31.47 C147.39 22.58, 138.47 18.36, 114.36 -1.99 M152.85 31.47 C141.87 21.82, 134.56 15.79, 114.36 -1.99 M151.7 25.17 C144.96 14.12, 126.84 9.52, 120 -2.39 M151.7 25.17 C140.25 14.34, 129.32 3.16, 120 -2.39 M150.55 18.87 C140.95 9.4, 140.25 7.5, 127.91 -0.82 M150.55 18.87 C142.69 12.2, 137.9 6.54, 127.91 -0.82" stroke="#228be6" stroke-width="0.5" fill="none"></path><path d="M32 0 M32 0 C58.28 3.11, 84.85 1.62, 119.89 0 M32 0 C60.92 -2.35, 86.92 -0.02, 119.89 0 M119.89 0 C138.85 0.02, 149.79 11.41, 151.89 32 M119.89 0 C137.03 1.07, 155.14 6.38, 151.89 32 M151.89 32 C145.51 110.27, 145.93 184.34, 151.89 390.77 M151.89 32 C152.37 176.04, 151.91 319.28, 151.89 390.77 M151.89 390.77 C152.85 408.64, 144.29 419.45, 119.89 422.77 M151.89 390.77 C152.52 408.58, 142.43 422.99, 119.89 422.77 M119.89 422.77 C84.56 419.79, 49.37 423.54, 32 422.77 M119.89 422.77 C83.77 425.14, 49.57 425.32, 32 422.77 M32 422.77 C11.83 419.17, 3.92 412.54, 0 390.77 M32 422.77 C12.03 425.4, 0.47 414.45, 0 390.77 M0 390.77 C-0.66 297.99, -0.96 201.66, 0 32 M0 390.77 C-4.12 263.4, -3.35 136.3, 0 32 M0 32 C-2.25 7.84, 13.95 3.25, 32 0 M0 32 C2.75 15.18, 6.46 2.83, 32 0" stroke="#000000" stroke-width="1" fill="none"></path></g><g stroke-linecap="round" transform="translate(578.5091958128705 121.27362059702989) rotate(0 19.518131496147248 19.49944104509754)"><path d="M0 0 C0 0, 0 0, 0 0 M0 0 C0 0, 0 0, 0 0 M0.13 12.04 C2.93 8.82, 5.73 5.6, 10.63 -0.03 M0.13 12.04 C2.95 8.8, 5.77 5.56, 10.63 -0.03 M0.27 24.08 C6.7 16.69, 13.13 9.29, 21.26 -0.07 M0.27 24.08 C8.1 15.07, 15.93 6.07, 21.26 -0.07 M-0.26 36.88 C8.47 26.84, 17.2 16.8, 31.89 -0.1 M-0.26 36.88 C10.97 23.96, 22.2 11.05, 31.89 -0.1 M5.12 42.88 C15.11 31.39, 25.1 19.9, 41.21 1.37 M5.12 42.88 C19.41 26.45, 33.69 10.02, 41.21 1.37 M15.76 42.85 C21.93 35.74, 28.1 28.64, 40.69 14.17 M15.76 42.85 C21.38 36.38, 27 29.91, 40.69 14.17 M25.73 43.57 C29.81 38.87, 33.9 34.17, 40.82 26.21 M25.73 43.57 C30.49 38.09, 35.24 32.62, 40.82 26.21 M0.31 39.27 C0.31 39.27, 0.31 39.27, 0.31 39.27 M0.31 39.27 C0.31 39.27, 0.31 39.27, 0.31 39.27 M12.35 39.14 C8.45 35.74, 4.54 32.34, 0.28 28.64 M12.35 39.14 C8.71 35.97, 5.06 32.8, 0.28 28.64 M24.39 39 C17.6 33.1, 10.81 27.2, 0.24 18.01 M24.39 39 C19.01 34.32, 13.62 29.64, 0.24 18.01 M36.44 38.87 C27.52 31.12, 18.61 23.37, 0.21 7.38 M36.44 38.87 C23.69 27.79, 10.95 16.71, 0.21 7.38 M43.19 34.15 C28.27 21.17, 13.35 8.2, 1.68 -1.94 M43.19 34.15 C29.27 22.04, 15.34 9.94, 1.68 -1.94 M43.16 23.52 C36.58 17.8, 30 12.08, 13.73 -2.07 M43.16 23.52 C34.76 16.22, 26.37 8.92, 13.73 -2.07 M43.12 12.89 C38.76 9.09, 34.4 5.3, 25.77 -2.2 M43.12 12.89 C39.2 9.47, 35.27 6.05, 25.77 -2.2" stroke="#fd7e1488" stroke-width="1" fill="none"></path><path d="M0 0 C8 0, 15.99 0, 39.04 0 M0 0 C13.74 0, 27.47 0, 39.04 0 M39.04 0 C39.04 9.88, 39.04 19.76, 39.04 39 M39.04 0 C39.04 15.05, 39.04 30.1, 39.04 39 M39.04 39 C24.66 39, 10.28 39, 0 39 M39.04 39 C28.92 39, 18.8 39, 0 39 M0 39 C0 28.87, 0 18.73, 0 0 M0 39 C0 25.35, 0 11.69, 0 0" stroke="#000000" stroke-width="2" fill="none"></path></g><g stroke-linecap="round"><g transform="translate(593.643324115619 137.46524466582338) rotate(0 -1.8632270527135688 8.144117248782976)"><path d="M0 0 C-2.79 5.57, -5.57 11.14, -7.71 15.42 M0 0 C-3.06 6.13, -6.13 12.26, -7.71 15.42 M-7.71 15.42 C-5.92 15.63, -4.14 15.84, -0.31 16.29 M-7.71 15.42 C-5.05 15.73, -2.39 16.05, -0.31 16.29 M-0.31 16.29 C0.61 14.5, 1.54 12.71, 3.98 7.98 M-0.31 16.29 C0.68 14.37, 1.67 12.45, 3.98 7.98 M3.98 7.98 C3.12 6.08, 2.27 4.17, 0.54 0.34 M3.98 7.98 C3.06 5.93, 2.14 3.89, 0.54 0.34" stroke="#000000" stroke-width="2" fill="none"></path></g></g><mask></mask><g stroke-linecap="round"><g transform="translate(608.4719459207975 147.09211992357717) rotate(0 -7.7188681864756745 -6.6613592398121)"><path d="M0 0 C-3.56 -7.73, -7.13 -15.45, -9.06 -19.63 M0 0 C-2.51 -5.45, -5.03 -10.9, -9.06 -19.63 M-9.06 -19.63 C-11.94 -19.75, -14.82 -19.87, -17.67 -19.98 M-9.06 -19.63 C-12.14 -19.76, -15.22 -19.88, -17.67 -19.98 M-17.67 -19.98 C-17.84 -18.3, -18.01 -16.61, -18.28 -13.93 M-17.67 -19.98 C-17.85 -18.13, -18.04 -16.27, -18.28 -13.93 M-18.28 -13.93 C-16.87 -13.74, -15.47 -13.54, -13.87 -13.32 M-18.28 -13.93 C-16.98 -13.75, -15.69 -13.57, -13.87 -13.32 M-13.87 -13.32 C-11.54 -8.3, -9.21 -3.28, -4.76 6.31 M-13.87 -13.32 C-11.1 -7.35, -8.33 -1.38, -4.76 6.31 M-4.76 6.31 C-2.26 6.44, 0.24 6.56, 2.23 6.66 M-4.76 6.31 C-2.06 6.45, 0.65 6.58, 2.23 6.66 M2.23 6.66 C2.41 4.86, 2.59 3.05, 2.84 0.61 M2.23 6.66 C2.42 4.82, 2.6 2.98, 2.84 0.61 M2.84 0.61 C2.65 0.42, 2.46 0.23, 2.23 0 M2.84 0.61 C2.61 0.37, 2.38 0.14, 2.23 0" stroke="#000000" stroke-width="2" fill="none"></path></g></g><mask></mask><g transform="translate(575.0273273090177 163.27823202922104) rotate(0 23 7.5)"><text x="23" y="11" font-family="Virgil, Segoe UI Emoji" font-size="12.111562254203767px" fill="#000000" text-anchor="middle" style="white-space: pre;" direction="ltr">Lambda</text></g><g stroke-linecap="round" transform="translate(580.294748640493 49.23802641212558) rotate(0 19.518131496147248 19.49944104509754)"><path d="M0 0 C0 0, 0 0, 0 0 M0 0 C0 0, 0 0, 0 0 M0.13 12.04 C4.11 7.46, 8.09 2.88, 10.63 -0.03 M0.13 12.04 C3.71 7.92, 7.29 3.81, 10.63 -0.03 M0.27 24.08 C4.79 18.88, 9.31 13.68, 21.26 -0.07 M0.27 24.08 C7.14 16.17, 14.01 8.27, 21.26 -0.07 M-0.26 36.88 C8.38 26.94, 17.02 17, 31.89 -0.1 M-0.26 36.88 C8.17 27.18, 16.6 17.49, 31.89 -0.1 M5.12 42.88 C12.99 33.83, 20.85 24.79, 41.21 1.37 M5.12 42.88 C12.92 33.91, 20.72 24.94, 41.21 1.37 M15.76 42.85 C20.87 36.96, 25.99 31.07, 40.69 14.17 M15.76 42.85 C22.51 35.07, 29.27 27.3, 40.69 14.17 M25.73 43.57 C30.06 38.58, 34.4 33.59, 40.82 26.21 M25.73 43.57 C29.8 38.89, 33.86 34.21, 40.82 26.21 M0.31 39.27 C0.31 39.27, 0.31 39.27, 0.31 39.27 M0.31 39.27 C0.31 39.27, 0.31 39.27, 0.31 39.27 M12.35 39.14 C9.56 36.71, 6.76 34.28, 0.28 28.64 M12.35 39.14 C7.84 35.22, 3.33 31.3, 0.28 28.64 M24.39 39 C18.91 34.24, 13.42 29.47, 0.24 18.01 M24.39 39 C16.69 32.31, 8.99 25.61, 0.24 18.01 M36.44 38.87 C26.15 29.93, 15.87 20.99, 0.21 7.38 M36.44 38.87 C22.37 26.64, 8.3 14.41, 0.21 7.38 M43.19 34.15 C27.47 20.48, 11.75 6.81, 1.68 -1.94 M43.19 34.15 C31.61 24.07, 20.02 14, 1.68 -1.94 M43.16 23.52 C34.25 15.77, 25.35 8.03, 13.73 -2.07 M43.16 23.52 C32.87 14.57, 22.58 5.62, 13.73 -2.07 M43.12 12.89 C37.74 8.2, 32.35 3.52, 25.77 -2.2 M43.12 12.89 C36.72 7.31, 30.31 1.74, 25.77 -2.2" stroke="#fd7e1488" stroke-width="1" fill="none"></path><path d="M0 0 C11.73 0, 23.47 0, 39.04 0 M0 0 C8.58 0, 17.17 0, 39.04 0 M39.04 0 C39.04 11.05, 39.04 22.09, 39.04 39 M39.04 0 C39.04 9.54, 39.04 19.07, 39.04 39 M39.04 39 C27.23 39, 15.43 39, 0 39 M39.04 39 C24.31 39, 9.57 39, 0 39 M0 39 C0 28.63, 0 18.26, 0 0 M0 39 C0 27.9, 0 16.81, 0 0" stroke="#000000" stroke-width="2" fill="none"></path></g><g stroke-linecap="round"><g transform="translate(595.4288769432414 65.42965048091901) rotate(0 -1.8632270527135688 8.144117248782976)"><path d="M0 0 C-2.07 4.15, -4.15 8.3, -7.71 15.42 M0 0 C-2.19 4.38, -4.38 8.77, -7.71 15.42 M-7.71 15.42 C-5.2 15.72, -2.7 16.01, -0.31 16.29 M-7.71 15.42 C-5.85 15.64, -3.99 15.86, -0.31 16.29 M-0.31 16.29 C1.28 13.22, 2.87 10.14, 3.98 7.98 M-0.31 16.29 C0.81 14.12, 1.93 11.94, 3.98 7.98 M3.98 7.98 C2.73 5.2, 1.48 2.42, 0.54 0.34 M3.98 7.98 C3.21 6.26, 2.44 4.54, 0.54 0.34" stroke="#000000" stroke-width="2" fill="none"></path></g></g><mask></mask><g stroke-linecap="round"><g transform="translate(610.2574987484197 75.05652573867286) rotate(0 -7.7188681864756745 -8.805191047091412)"><path d="M0 0 C-2.01 -4.36, -4.03 -8.73, -9.06 -19.63 M0 0 C-2.17 -4.7, -4.34 -9.4, -9.06 -19.63 M-9.06 -19.63 C-12.28 -19.76, -15.5 -19.9, -17.67 -19.98 M-9.06 -19.63 C-11.27 -19.72, -13.48 -19.81, -17.67 -19.98 M-17.67 -19.98 C-17.9 -17.68, -18.13 -15.38, -18.28 -13.93 M-17.67 -19.98 C-17.9 -17.64, -18.14 -15.3, -18.28 -13.93 M-18.28 -13.93 C-17.08 -17.98, -15.89 -22.03, -15.23 -24.27 M-18.28 -13.93 C-17.43 -16.81, -16.58 -19.7, -15.23 -24.27 M-15.23 -24.27 C-11.87 -14.44, -8.5 -4.62, -4.76 6.31 M-15.23 -24.27 C-12.17 -15.32, -9.1 -6.37, -4.76 6.31 M-4.76 6.31 C-2.67 6.42, -0.59 6.52, 2.23 6.66 M-4.76 6.31 C-3.02 6.4, -1.28 6.49, 2.23 6.66 M2.23 6.66 C2.42 4.75, 2.61 2.84, 2.84 0.61 M2.23 6.66 C2.46 4.36, 2.69 2.06, 2.84 0.61 M2.84 0.61 C2.67 0.44, 2.5 0.27, 2.23 0 M2.84 0.61 C2.67 0.44, 2.5 0.27, 2.23 0" stroke="#000000" stroke-width="2" fill="none"></path></g></g><mask></mask><g transform="translate(576.6223781170563 91.24263784431673) rotate(0 23 7.5)"><text x="23" y="11" font-family="Virgil, Segoe UI Emoji" font-size="12.111562254203767px" fill="#000000" text-anchor="middle" style="white-space: pre;" direction="ltr">Lambda</text></g><g stroke-linecap="round" transform="translate(578.7287574625602 199.27935434481589) rotate(0 19.518131496147248 19.49944104509754)"><path d="M0 0 C0 0, 0 0, 0 0 M0 0 C0 0, 0 0, 0 0 M0.13 12.04 C4.03 7.56, 7.93 3.07, 10.63 -0.03 M0.13 12.04 C2.9 8.86, 5.67 5.67, 10.63 -0.03 M0.27 24.08 C5.24 18.36, 10.21 12.65, 21.26 -0.07 M0.27 24.08 C4.76 18.91, 9.26 13.74, 21.26 -0.07 M-0.26 36.88 C11.12 23.79, 22.5 10.7, 31.89 -0.1 M-0.26 36.88 C7.75 27.67, 15.75 18.47, 31.89 -0.1 M5.12 42.88 C13.62 33.11, 22.11 23.34, 41.21 1.37 M5.12 42.88 C14.31 32.31, 23.5 21.75, 41.21 1.37 M15.76 42.85 C24.68 32.58, 33.61 22.31, 40.69 14.17 M15.76 42.85 C21.45 36.29, 27.15 29.74, 40.69 14.17 M25.73 43.57 C28.94 39.87, 32.15 36.18, 40.82 26.21 M25.73 43.57 C29.18 39.59, 32.64 35.62, 40.82 26.21 M0.31 39.27 C0.31 39.27, 0.31 39.27, 0.31 39.27 M0.31 39.27 C0.31 39.27, 0.31 39.27, 0.31 39.27 M12.35 39.14 C9.31 36.49, 6.26 33.84, 0.28 28.64 M12.35 39.14 C8.15 35.49, 3.95 31.83, 0.28 28.64 M24.39 39 C16.2 31.88, 8.01 24.76, 0.24 18.01 M24.39 39 C18.65 34.01, 12.91 29.02, 0.24 18.01 M36.44 38.87 C26.94 30.62, 17.45 22.37, 0.21 7.38 M36.44 38.87 C22.06 26.37, 7.68 13.88, 0.21 7.38 M43.19 34.15 C29.4 22.15, 15.6 10.16, 1.68 -1.94 M43.19 34.15 C33.29 25.54, 23.39 16.94, 1.68 -1.94 M43.16 23.52 C32.12 13.92, 21.07 4.32, 13.73 -2.07 M43.16 23.52 C33.25 14.91, 23.35 6.3, 13.73 -2.07 M43.12 12.89 C36.53 7.15, 29.93 1.42, 25.77 -2.2 M43.12 12.89 C36.6 7.22, 30.08 1.54, 25.77 -2.2" stroke="#fd7e1488" stroke-width="1" fill="none"></path><path d="M0 0 C10.02 0, 20.04 0, 39.04 0 M0 0 C8.44 0, 16.89 0, 39.04 0 M39.04 0 C39.04 12.2, 39.04 24.41, 39.04 39 M39.04 0 C39.04 10.11, 39.04 20.21, 39.04 39 M39.04 39 C24.67 39, 10.3 39, 0 39 M39.04 39 C24.67 39, 10.3 39, 0 39 M0 39 C0 28.68, 0 18.37, 0 0 M0 39 C0 26.33, 0 13.66, 0 0" stroke="#000000" stroke-width="2" fill="none"></path></g><g stroke-linecap="round"><g transform="translate(593.8628857653084 215.47097841360937) rotate(0 -1.8632270527135688 8.144117248782976)"><path d="M0 0 C-2.65 5.29, -5.29 10.59, -7.71 15.42 M0 0 C-2.3 4.61, -4.61 9.22, -7.71 15.42 M-7.71 15.42 C-4.86 15.76, -2.02 16.09, -0.31 16.29 M-7.71 15.42 C-4.91 15.75, -2.11 16.08, -0.31 16.29 M-0.31 16.29 C1.02 13.71, 2.36 11.13, 3.98 7.98 M-0.31 16.29 C1.33 13.11, 2.97 9.94, 3.98 7.98 M3.98 7.98 C2.82 5.39, 1.65 2.8, 0.54 0.34 M3.98 7.98 C2.76 5.27, 1.54 2.56, 0.54 0.34" stroke="#000000" stroke-width="2" fill="none"></path></g></g><mask></mask><g stroke-linecap="round"><g transform="translate(608.6915075704869 225.09785367136323) rotate(0 -7.7188681864756745 -6.6613592398121)"><path d="M0 0 C-2.29 -4.96, -4.58 -9.92, -9.06 -19.63 M0 0 C-2.77 -6, -5.54 -12, -9.06 -19.63 M-9.06 -19.63 C-11.88 -19.75, -14.71 -19.86, -17.67 -19.98 M-9.06 -19.63 C-11.23 -19.72, -13.4 -19.81, -17.67 -19.98 M-17.67 -19.98 C-17.8 -18.63, -17.94 -17.28, -18.28 -13.93 M-17.67 -19.98 C-17.8 -18.67, -17.93 -17.36, -18.28 -13.93 M-18.28 -13.93 C-16.85 -13.73, -15.43 -13.54, -13.87 -13.32 M-18.28 -13.93 C-17.11 -13.77, -15.95 -13.61, -13.87 -13.32 M-13.87 -13.32 C-11.35 -7.91, -8.84 -2.49, -4.76 6.31 M-13.87 -13.32 C-11.43 -8.06, -8.99 -2.81, -4.76 6.31 M-4.76 6.31 C-3.05 6.4, -1.34 6.48, 2.23 6.66 M-4.76 6.31 C-2.9 6.4, -1.03 6.5, 2.23 6.66 M2.23 6.66 C2.45 4.5, 2.66 2.35, 2.84 0.61 M2.23 6.66 C2.36 5.41, 2.48 4.15, 2.84 0.61 M2.84 0.61 C2.63 0.39, 2.41 0.18, 2.23 0 M2.84 0.61 C2.66 0.43, 2.48 0.25, 2.23 0" stroke="#000000" stroke-width="2" fill="none"></path></g></g><mask></mask><g transform="translate(575.2468889587074 241.28396577700704) rotate(0 23 7.5)"><text x="23" y="11" font-family="Virgil, Segoe UI Emoji" font-size="12.111562254203767px" fill="#000000" text-anchor="middle" style="white-space: pre;" direction="ltr">Lambda</text></g><g stroke-linecap="round" transform="translate(579.8846849712197 269.2743167267234) rotate(0 19.518131496147248 19.49944104509754)"><path d="M0 0 C0 0, 0 0, 0 0 M0 0 C0 0, 0 0, 0 0 M0.13 12.04 C3.86 7.75, 7.59 3.46, 10.63 -0.03 M0.13 12.04 C2.5 9.32, 4.86 6.6, 10.63 -0.03 M0.27 24.08 C6.36 17.07, 12.45 10.07, 21.26 -0.07 M0.27 24.08 C8.07 15.11, 15.87 6.14, 21.26 -0.07 M-0.26 36.88 C6.73 28.84, 13.71 20.81, 31.89 -0.1 M-0.26 36.88 C10.41 24.6, 21.09 12.33, 31.89 -0.1 M5.12 42.88 C15.36 31.11, 25.6 19.33, 41.21 1.37 M5.12 42.88 C12.65 34.22, 20.18 25.56, 41.21 1.37 M15.76 42.85 C23.25 34.23, 30.74 25.61, 40.69 14.17 M15.76 42.85 C23.6 33.82, 31.44 24.8, 40.69 14.17 M25.73 43.57 C31.66 36.74, 37.59 29.92, 40.82 26.21 M25.73 43.57 C30.62 37.95, 35.5 32.32, 40.82 26.21 M0.31 39.27 C0.31 39.27, 0.31 39.27, 0.31 39.27 M0.31 39.27 C0.31 39.27, 0.31 39.27, 0.31 39.27 M12.35 39.14 C7.81 35.18, 3.26 31.23, 0.28 28.64 M12.35 39.14 C9.3 36.49, 6.25 33.83, 0.28 28.64 M24.39 39 C16.22 31.9, 8.05 24.79, 0.24 18.01 M24.39 39 C17.75 33.23, 11.11 27.46, 0.24 18.01 M36.44 38.87 C28.56 32.02, 20.68 25.17, 0.21 7.38 M36.44 38.87 C25.36 29.24, 14.28 19.61, 0.21 7.38 M43.19 34.15 C32.42 24.78, 21.65 15.42, 1.68 -1.94 M43.19 34.15 C31.83 24.27, 20.47 14.39, 1.68 -1.94 M43.16 23.52 C33.62 15.23, 24.09 6.94, 13.73 -2.07 M43.16 23.52 C32.31 14.08, 21.46 4.65, 13.73 -2.07 M43.12 12.89 C37.32 7.84, 31.51 2.79, 25.77 -2.2 M43.12 12.89 C36.34 6.99, 29.56 1.09, 25.77 -2.2" stroke="#fd7e1488" stroke-width="1" fill="none"></path><path d="M0 0 C15.54 0, 31.09 0, 39.04 0 M0 0 C15.56 0, 31.11 0, 39.04 0 M39.04 0 C39.04 9.24, 39.04 18.48, 39.04 39 M39.04 0 C39.04 12.58, 39.04 25.17, 39.04 39 M39.04 39 C25.64 39, 12.25 39, 0 39 M39.04 39 C28.71 39, 18.38 39, 0 39 M0 39 C0 27.55, 0 16.09, 0 0 M0 39 C0 26.46, 0 13.92, 0 0" stroke="#000000" stroke-width="2" fill="none"></path></g><g stroke-linecap="round"><g transform="translate(595.0188132739681 285.46594079551676) rotate(0 -1.8632270527135688 8.144117248782976)"><path d="M0 0 C-2.22 4.45, -4.45 8.9, -7.71 15.42 M0 0 C-1.93 3.87, -3.87 7.73, -7.71 15.42 M-7.71 15.42 C-5.8 15.65, -3.89 15.87, -0.31 16.29 M-7.71 15.42 C-5.75 15.65, -3.8 15.88, -0.31 16.29 M-0.31 16.29 C0.67 14.38, 1.66 12.47, 3.98 7.98 M-0.31 16.29 C1.36 13.06, 3.03 9.82, 3.98 7.98 M3.98 7.98 C3.17 6.18, 2.36 4.37, 0.54 0.34 M3.98 7.98 C3.28 6.42, 2.57 4.85, 0.54 0.34" stroke="#000000" stroke-width="2" fill="none"></path></g></g><mask></mask><g stroke-linecap="round"><g transform="translate(609.8474350791466 295.0928160532706) rotate(0 -7.7188681864756745 -6.6613592398121)"><path d="M0 0 C-3.35 -7.27, -6.71 -14.53, -9.06 -19.63 M0 0 C-3.37 -7.3, -6.74 -14.61, -9.06 -19.63 M-9.06 -19.63 C-12.47 -19.77, -15.88 -19.91, -17.67 -19.98 M-9.06 -19.63 C-11.58 -19.74, -14.09 -19.84, -17.67 -19.98 M-17.67 -19.98 C-17.86 -18.08, -18.05 -16.18, -18.28 -13.93 M-17.67 -19.98 C-17.87 -17.99, -18.07 -16, -18.28 -13.93 M-18.28 -13.93 C-16.76 -13.72, -15.25 -13.51, -13.87 -13.32 M-18.28 -13.93 C-16.68 -13.71, -15.08 -13.49, -13.87 -13.32 M-13.87 -13.32 C-11.45 -8.12, -9.04 -2.92, -4.76 6.31 M-13.87 -13.32 C-10.38 -5.8, -6.89 1.72, -4.76 6.31 M-4.76 6.31 C-2.82 6.41, -0.87 6.51, 2.23 6.66 M-4.76 6.31 C-3.06 6.4, -1.36 6.48, 2.23 6.66 M2.23 6.66 C2.38 5.19, 2.53 3.72, 2.84 0.61 M2.23 6.66 C2.36 5.41, 2.48 4.16, 2.84 0.61 M2.84 0.61 C2.64 0.4, 2.43 0.2, 2.23 0 M2.84 0.61 C2.66 0.43, 2.48 0.25, 2.23 0" stroke="#000000" stroke-width="2" fill="none"></path></g></g><mask></mask><g transform="translate(576.4028164673666 311.2789281589146) rotate(0 23 7.5)"><text x="23" y="11" font-family="Virgil, Segoe UI Emoji" font-size="12.111562254203767px" fill="#000000" text-anchor="middle" style="white-space: pre;" direction="ltr">Lambda</text></g><g stroke-linecap="round" transform="translate(579.5811732790019 342.70800200450367) rotate(0 19.518131496147248 19.49944104509757)"><path d="M0 0 C0 0, 0 0, 0 0 M0 0 C0 0, 0 0, 0 0 M0.13 12.04 C3.05 8.69, 5.96 5.34, 10.63 -0.03 M0.13 12.04 C2.34 9.5, 4.55 6.96, 10.63 -0.03 M0.27 24.08 C7.82 15.4, 15.36 6.71, 21.26 -0.07 M0.27 24.08 C7.55 15.71, 14.83 7.33, 21.26 -0.07 M-0.26 36.88 C8.76 26.51, 17.77 16.13, 31.89 -0.1 M-0.26 36.88 C6.85 28.71, 13.95 20.53, 31.89 -0.1 M5.12 42.88 C13.13 33.68, 21.13 24.47, 41.21 1.37 M5.12 42.88 C17.77 28.33, 30.42 13.78, 41.21 1.37 M15.76 42.85 C23.96 33.41, 32.16 23.97, 40.69 14.17 M15.76 42.85 C24.83 32.4, 33.91 21.96, 40.69 14.17 M25.73 43.57 C31.19 37.28, 36.65 31, 40.82 26.21 M25.73 43.57 C31.03 37.47, 36.33 31.37, 40.82 26.21 M0.31 39.27 C0.31 39.27, 0.31 39.27, 0.31 39.27 M0.31 39.27 C0.31 39.27, 0.31 39.27, 0.31 39.27 M12.35 39.14 C9.78 36.9, 7.2 34.66, 0.28 28.64 M12.35 39.14 C9.82 36.93, 7.28 34.73, 0.28 28.64 M24.39 39 C17.84 33.31, 11.28 27.61, 0.24 18.01 M24.39 39 C16.78 32.38, 9.16 25.76, 0.24 18.01 M36.44 38.87 C27.95 31.49, 19.46 24.12, 0.21 7.38 M36.44 38.87 C23.31 27.46, 10.19 16.06, 0.21 7.38 M43.19 34.15 C31.5 23.98, 19.81 13.82, 1.68 -1.94 M43.19 34.15 C26.81 19.9, 10.42 5.66, 1.68 -1.94 M43.16 23.52 C34.1 15.64, 25.04 7.77, 13.73 -2.07 M43.16 23.52 C36.74 17.93, 30.31 12.35, 13.73 -2.07 M43.12 12.89 C36.69 7.29, 30.26 1.7, 25.77 -2.2 M43.12 12.89 C37.07 7.62, 31.01 2.36, 25.77 -2.2" stroke="#fd7e1488" stroke-width="1" fill="none"></path><path d="M0 0 C11.1 0, 22.19 0, 39.04 0 M0 0 C13.23 0, 26.46 0, 39.04 0 M39.04 0 C39.04 9.82, 39.04 19.63, 39.04 39 M39.04 0 C39.04 14.43, 39.04 28.86, 39.04 39 M39.04 39 C28.83 39, 18.62 39, 0 39 M39.04 39 C24.82 39, 10.61 39, 0 39 M0 39 C0 30.23, 0 21.45, 0 0 M0 39 C0 25.96, 0 12.91, 0 0" stroke="#000000" stroke-width="2" fill="none"></path></g><g stroke-linecap="round"><g transform="translate(594.7153015817503 358.8996260732972) rotate(0 -1.8632270527135688 8.144117248782948)"><path d="M0 0 C-1.85 3.69, -3.69 7.38, -7.71 15.42 M0 0 C-2.88 5.77, -5.77 11.54, -7.71 15.42 M-7.71 15.42 C-5.81 15.64, -3.91 15.87, -0.31 16.29 M-7.71 15.42 C-4.9 15.75, -2.08 16.08, -0.31 16.29 M-0.31 16.29 C1.35 13.08, 3.01 9.86, 3.98 7.98 M-0.31 16.29 C1.37 13.04, 3.05 9.79, 3.98 7.98 M3.98 7.98 C3.02 5.85, 2.07 3.72, 0.54 0.34 M3.98 7.98 C2.88 5.53, 1.77 3.07, 0.54 0.34" stroke="#000000" stroke-width="2" fill="none"></path></g></g><mask></mask><g stroke-linecap="round"><g transform="translate(609.5439233869288 368.5265013310509) rotate(0 -7.7188681864756745 -6.661359239812043)"><path d="M0 0 C-2.23 -4.83, -4.45 -9.65, -9.06 -19.63 M0 0 C-2.7 -5.86, -5.4 -11.71, -9.06 -19.63 M-9.06 -19.63 C-11.54 -19.73, -14.02 -19.84, -17.67 -19.98 M-9.06 -19.63 C-12.5 -19.77, -15.93 -19.91, -17.67 -19.98 M-17.67 -19.98 C-17.91 -17.56, -18.15 -15.14, -18.28 -13.93 M-17.67 -19.98 C-17.86 -18.11, -18.04 -16.24, -18.28 -13.93 M-18.28 -13.93 C-17.24 -13.79, -16.21 -13.64, -13.87 -13.32 M-18.28 -13.93 C-16.85 -13.73, -15.43 -13.54, -13.87 -13.32 M-13.87 -13.32 C-11.04 -7.24, -8.22 -1.15, -4.76 6.31 M-13.87 -13.32 C-10.7 -6.49, -7.53 0.34, -4.76 6.31 M-4.76 6.31 C-2.96 6.4, -1.16 6.49, 2.23 6.66 M-4.76 6.31 C-3 6.4, -1.24 6.49, 2.23 6.66 M2.23 6.66 C2.4 5.01, 2.56 3.36, 2.84 0.61 M2.23 6.66 C2.36 5.37, 2.49 4.08, 2.84 0.61 M2.84 0.61 C2.62 0.38, 2.4 0.16, 2.23 0 M2.84 0.61 C2.67 0.44, 2.51 0.28, 2.23 0" stroke="#000000" stroke-width="2" fill="none"></path></g></g><mask></mask><g transform="translate(576.0993047751488 384.7126134366947) rotate(0 23 7.5)"><text x="23" y="11" font-family="Virgil, Segoe UI Emoji" font-size="12.111562254203767px" fill="#000000" text-anchor="middle" style="white-space: pre;" direction="ltr">Lambda</text></g><g stroke-linecap="round"><g transform="translate(531.083626088237 212.28834012414825) rotate(0 20.896270453907505 -69.03215335137742)"><path d="M-0.39 -3.27 C0.46 -27.9, -2.63 -60.65, 8.31 -135.67 M-0.55 -1.16 C-1.55 -45.84, 4.63 -91.52, 10 -134.47 M7.94 -132.6 C19.89 -131.52, 21.66 -135.58, 41.84 -136.9 M9.14 -135.17 C20.29 -134.82, 31.76 -134.33, 42.45 -135.87" stroke="#000000" stroke-width="1" fill="none"></path></g><g transform="translate(531.083626088237 212.28834012414825) rotate(0 20.896270453907505 -69.03215335137742)"><path d="M25.72 -131.11 C30.63 -128.05, 29.81 -132.39, 42.64 -135.61 M25.57 -129.21 C29.89 -130.78, 38.51 -133.45, 44.17 -134.52" stroke="#000000" stroke-width="1" fill="none"></path></g><g transform="translate(531.083626088237 212.28834012414825) rotate(0 20.896270453907505 -69.03215335137742)"><path d="M24.58 -143.45 C29.98 -137.67, 29.41 -139.31, 42.64 -135.61 M24.44 -141.54 C29.37 -138.96, 38.37 -137.49, 44.17 -134.52" stroke="#000000" stroke-width="1" fill="none"></path></g></g><mask></mask><g stroke-linecap="round"><g transform="translate(533.7884896410326 212.73865341478103) rotate(0 21.27865160354486 -39.39960902978157)"><path d="M-0.37 -2.91 C3.58 -19.56, 6.24 -34.85, 3.71 -75.89 M-1.71 -0.09 C4.55 -24.52, 3.69 -47.26, 9.42 -75.77 M6.65 -78.71 C18.06 -76.22, 30.9 -77.51, 44.26 -76.9 M6.2 -73.52 C20.99 -75.87, 33.36 -75.06, 41.5 -74.92" stroke="#000000" stroke-width="1" fill="none"></path></g><g transform="translate(533.7884896410326 212.73865341478103) rotate(0 21.27865160354486 -39.39960902978157)"><path d="M25.03 -71.96 C30.71 -71.52, 35.35 -70.03, 38.16 -75.39 M23.89 -69.55 C31.71 -72.4, 33.95 -73.71, 43.02 -75.29" stroke="#000000" stroke-width="1" fill="none"></path></g><g transform="translate(533.7884896410326 212.73865341478103) rotate(0 21.27865160354486 -39.39960902978157)"><path d="M25.31 -83.62 C30.9 -80.3, 35.48 -75.93, 38.16 -75.39 M24.17 -81.21 C31.81 -80.47, 33.96 -78.2, 43.02 -75.29" stroke="#000000" stroke-width="1" fill="none"></path></g></g><mask></mask><g stroke-linecap="round"><g transform="translate(537.4024812123903 215.27825317727337) rotate(0 19.44678894062838 0.7810061018803935)"><path d="M3.33 -2.24 C13.68 -0.19, 31.93 -2.73, 34.9 3.8 M1.62 1.48 C14.16 -0.17, 26.69 0.05, 37.28 -1.23" stroke="#000000" stroke-width="1" fill="none"></path></g><g transform="translate(537.4024812123903 215.27825317727337) rotate(0 19.44678894062838 0.7810061018803935)"><path d="M23.93 4.3 C26.95 3.01, 37.14 -2.36, 36.29 1.81 M22.39 7.65 C27.91 3.17, 33.29 0.45, 38.43 -2.71" stroke="#000000" stroke-width="1" fill="none"></path></g><g transform="translate(537.4024812123903 215.27825317727337) rotate(0 19.44678894062838 0.7810061018803935)"><path d="M22.91 -7.97 C26.42 -4.49, 37.01 -5.09, 36.29 1.81 M21.36 -4.62 C27.05 -4.58, 32.81 -2.79, 38.43 -2.71" stroke="#000000" stroke-width="1" fill="none"></path></g></g><mask></mask><g stroke-linecap="round"><g transform="translate(533.879808273989 226.83107056829027) rotate(0 20.71551434574974 70.27353307967249)"><path d="M-0.28 -0.73 C-1.25 44.09, 0.71 93.96, 4.4 133.55 M0.12 -1.66 C2.45 44.43, 3.4 90.9, 4.68 136.84 M3.05 139.93 C19.76 137.04, 35.83 142.05, 40.23 140.22 M3.65 138.41 C13.72 138.92, 25.6 139.68, 41.96 142.21" stroke="#000000" stroke-width="1" fill="none"></path></g><g transform="translate(533.879808273989 226.83107056829027) rotate(0 20.71551434574974 70.27353307967249)"><path d="M22.18 145.73 C29.43 143, 36.95 145.38, 43.37 139.1 M22.57 144.79 C29.87 144.56, 36.24 144.74, 43.65 142.39" stroke="#000000" stroke-width="1" fill="none"></path></g><g transform="translate(533.879808273989 226.83107056829027) rotate(0 20.71551434574974 70.27353307967249)"><path d="M24.02 132.2 C30.39 134.04, 37.3 140.98, 43.37 139.1 M24.41 131.27 C31.14 135.48, 36.92 140.11, 43.65 142.39" stroke="#000000" stroke-width="1" fill="none"></path></g></g><mask></mask><g stroke-linecap="round"><g transform="translate(537.2507253662811 223.65286446860688) rotate(0 18.739861277058367 38.653355131915845)"><path d="M-2.09 1.16 C-2.8 26.41, 4.77 57.02, 9.63 74.38 M1.33 1.12 C3.02 17.19, 3.65 30.56, 6.22 73.32 M5.12 73.89 C14.41 73.22, 26.32 73.66, 37.94 76.18 M7.64 73.68 C15.38 75.26, 26.18 74.64, 39.61 72.89" stroke="#000000" stroke-width="1" fill="none"></path></g><g transform="translate(537.2507253662811 223.65286446860688) rotate(0 18.739861277058367 38.653355131915845)"><path d="M23.33 81.01 C27.6 76.4, 37.26 76.09, 42.3 72.61 M26.11 80.99 C29.41 79.24, 31.98 75.32, 39.53 71.75" stroke="#000000" stroke-width="1" fill="none"></path></g><g transform="translate(537.2507253662811 223.65286446860688) rotate(0 18.739861277058367 38.653355131915845)"><path d="M22.13 69.96 C26.62 69.46, 36.73 73.24, 42.3 72.61 M24.9 69.93 C28.49 70.58, 31.32 69.07, 39.53 71.75" stroke="#000000" stroke-width="1" fill="none"></path></g></g><mask></mask><g transform="translate(349.8122924896704 278.40045704093336) rotate(0 66.5 10)"><text x="0" y="16" font-family="Cascadia, Segoe UI Emoji" font-size="16px" fill="#000000" text-anchor="start" style="white-space: pre;" direction="ltr">Lambda Service</text></g><g stroke-linecap="round"><g transform="translate(593.152302063332 402.1439777869997) rotate(0 -1.7264038697346678 21.278989963447373)"><path d="M2.43 -0.9 C1.68 6, -4.45 35.98, -5.88 43.45" stroke="#000000" stroke-width="1.5" fill="none" stroke-dasharray="8 9"></path></g><g transform="translate(593.152302063332 402.1439777869997) rotate(0 -1.7264038697346678 21.278989963447373)"><path d="M-10.36 24.07 C-4.73 28.77, -3.26 30.52, -2.3 45.2" stroke="#000000" stroke-width="1.5" fill="none"></path></g><g transform="translate(593.152302063332 402.1439777869997) rotate(0 -1.7264038697346678 21.278989963447373)"><path d="M3.64 26.84 C5.73 31.09, 3.72 32.15, -2.3 45.2" stroke="#000000" stroke-width="1.5" fill="none"></path></g></g><mask></mask><g stroke-linecap="round" transform="translate(366.0622575566615 179.5583359200245) rotate(0 43.242837671282246 43.20142857733771)"><path d="M0 0 C0 0, 0 0, 0 0 M0 0 C0 0, 0 0, 0 0 M0.13 12.04 C3.07 8.66, 6.01 5.28, 10.63 -0.03 M0.13 12.04 C3.02 8.72, 5.91 5.4, 10.63 -0.03 M0.27 24.08 C6.6 16.8, 12.93 9.51, 21.26 -0.07 M0.27 24.08 C4.8 18.87, 9.33 13.66, 21.26 -0.07 M-0.26 36.88 C9.07 26.15, 18.4 15.42, 31.89 -0.1 M-0.26 36.88 C10.75 24.22, 21.75 11.56, 31.89 -0.1 M-0.12 48.92 C16.33 29.99, 32.79 11.06, 42.52 -0.14 M-0.12 48.92 C14.21 32.42, 28.55 15.93, 42.52 -0.14 M0.01 60.96 C11.39 47.87, 22.77 34.78, 53.15 -0.17 M0.01 60.96 C17.24 41.14, 34.47 21.32, 53.15 -0.17 M0.14 73 C16.07 54.68, 31.99 36.37, 63.78 -0.21 M0.14 73 C16.86 53.77, 33.57 34.54, 63.78 -0.21 M0.28 85.04 C21.41 60.73, 42.55 36.41, 74.41 -0.24 M0.28 85.04 C16.72 66.13, 33.16 47.21, 74.41 -0.24 M5.66 91.04 C36.71 55.32, 67.76 19.61, 85.04 -0.28 M5.66 91.04 C35.04 57.24, 64.43 23.43, 85.04 -0.28 M16.29 91.01 C45.54 57.36, 74.79 23.71, 91.73 4.22 M16.29 91.01 C35.85 68.51, 55.4 46.01, 91.73 4.22 M26.92 90.97 C40.34 75.53, 53.76 60.09, 91.87 16.26 M26.92 90.97 C40.38 75.49, 53.85 60, 91.87 16.26 M37.55 90.94 C56.82 68.77, 76.09 46.61, 91.34 29.05 M37.55 90.94 C58.22 67.16, 78.9 43.37, 91.34 29.05 M48.18 90.91 C61.01 76.15, 73.84 61.39, 91.48 41.1 M48.18 90.91 C65.32 71.18, 82.47 51.46, 91.48 41.1 M58.81 90.87 C68.14 80.14, 77.47 69.41, 91.61 53.14 M58.81 90.87 C70.89 76.98, 82.96 63.08, 91.61 53.14 M69.44 90.84 C77.49 81.57, 85.55 72.3, 91.74 65.18 M69.44 90.84 C76.83 82.33, 84.23 73.82, 91.74 65.18 M79.41 91.56 C81.98 88.61, 84.54 85.66, 91.88 77.22 M79.41 91.56 C83.22 87.18, 87.03 82.8, 91.88 77.22 M0.24 86.61 C0.24 86.61, 0.24 86.61, 0.24 86.61 M0.24 86.61 C0.24 86.61, 0.24 86.61, 0.24 86.61 M12.28 86.48 C9.71 84.24, 7.13 82, 0.2 75.98 M12.28 86.48 C8.48 83.18, 4.69 79.88, 0.2 75.98 M24.32 86.34 C16.38 79.44, 8.44 72.54, 0.17 65.35 M24.32 86.34 C17.26 80.21, 10.21 74.07, 0.17 65.35 M36.36 86.21 C23.72 75.22, 11.08 64.23, 0.13 54.72 M36.36 86.21 C27.81 78.78, 19.27 71.35, 0.13 54.72 M48.4 86.08 C36.74 75.94, 25.09 65.81, 0.1 44.09 M48.4 86.08 C35.11 74.52, 21.81 62.96, 0.1 44.09 M61.2 86.6 C42.4 70.26, 23.6 53.92, 0.06 33.46 M61.2 86.6 C40.69 68.77, 20.19 50.95, 0.06 33.46 M73.24 86.47 C47.67 64.24, 22.1 42.01, 0.03 22.83 M73.24 86.47 C49.73 66.03, 26.22 45.59, 0.03 22.83 M85.28 86.33 C56.77 61.55, 28.27 36.78, 0 12.2 M85.28 86.33 C68.12 71.42, 50.97 56.51, 0 12.2 M91.28 80.95 C58.28 52.27, 25.29 23.58, -0.04 1.57 M91.28 80.95 C55.44 49.8, 19.6 18.64, -0.04 1.57 M91.25 70.32 C62.92 45.69, 34.58 21.07, 4.46 -5.13 M91.25 70.32 C69.99 51.85, 48.74 33.37, 4.46 -5.13 M91.21 59.69 C69.69 40.99, 48.17 22.28, 16.5 -5.26 M91.21 59.69 C74.39 45.06, 57.56 30.44, 16.5 -5.26 M91.18 49.06 C70.33 30.94, 49.48 12.82, 28.54 -5.39 M91.18 49.06 C78.54 38.07, 65.9 27.08, 28.54 -5.39 M91.14 38.43 C74.14 23.65, 57.14 8.87, 41.33 -4.87 M91.14 38.43 C79.75 28.52, 68.35 18.62, 41.33 -4.87 M91.11 27.8 C81.54 19.48, 71.96 11.16, 53.37 -5 M91.11 27.8 C82.41 20.24, 73.7 12.67, 53.37 -5 M91.07 17.17 C85.05 11.93, 79.02 6.69, 65.41 -5.13 M91.07 17.17 C81.16 8.56, 71.25 -0.06, 65.41 -5.13 M91.04 6.54 C86.41 2.51, 81.78 -1.51, 77.46 -5.27 M91.04 6.54 C88.14 4.02, 85.24 1.5, 77.46 -5.27" stroke="#fd7e1488" stroke-width="1" fill="none"></path><path d="M0 0 C33.71 0, 67.42 0, 86.49 0 M0 0 C20.88 0, 41.75 0, 86.49 0 M86.49 0 C86.49 28.19, 86.49 56.39, 86.49 86.4 M86.49 0 C86.49 34.46, 86.49 68.93, 86.49 86.4 M86.49 86.4 C52.22 86.4, 17.96 86.4, 0 86.4 M86.49 86.4 C55.36 86.4, 24.24 86.4, 0 86.4 M0 86.4 C0 60.31, 0 34.22, 0 0 M0 86.4 C0 65.21, 0 44.01, 0 0" stroke="#000000" stroke-width="2" fill="none"></path></g><g stroke-linecap="round"><g transform="translate(399.5922424131161 215.4312252577908) rotate(0 -4.128019375273652 18.043465904230032)"><path d="M0 0 C-4.77 9.54, -9.54 19.08, -17.08 34.17 M0 0 C-5.67 11.34, -11.33 22.67, -17.08 34.17 M-17.08 34.17 C-11.26 34.85, -5.44 35.53, -0.69 36.09 M-17.08 34.17 C-11.37 34.84, -5.66 35.51, -0.69 36.09 M-0.69 36.09 C2.75 29.44, 6.19 22.78, 8.82 17.68 M-0.69 36.09 C3.07 28.8, 6.84 21.52, 8.82 17.68 M8.82 17.68 C6.18 11.81, 3.54 5.93, 1.21 0.76 M8.82 17.68 C6.73 13.03, 4.63 8.37, 1.21 0.76" stroke="#000000" stroke-width="2" fill="none"></path></g></g><mask></mask><g stroke-linecap="round"><g transform="translate(432.44537109178805 236.7597732355983) rotate(0 -17.101317513906338 -14.75838383065252)"><path d="M0 0 C-7.56 -16.38, -15.12 -32.76, -20.07 -43.5 M0 0 C-6.72 -14.55, -13.43 -29.11, -20.07 -43.5 M-20.07 -43.5 C-26.73 -43.77, -33.39 -44.04, -39.14 -44.28 M-20.07 -43.5 C-25.03 -43.7, -29.99 -43.9, -39.14 -44.28 M-39.14 -44.28 C-39.46 -41.12, -39.77 -37.97, -40.49 -30.86 M-39.14 -44.28 C-39.43 -41.43, -39.71 -38.58, -40.49 -30.86 M-40.49 -30.86 C-38.12 -30.53, -35.75 -30.21, -30.72 -29.52 M-40.49 -30.86 C-37.13 -30.4, -33.77 -29.94, -30.72 -29.52 M-30.72 -29.52 C-23.96 -14.94, -17.21 -0.36, -10.55 13.98 M-30.72 -29.52 C-24.95 -17.08, -19.19 -4.64, -10.55 13.98 M-10.55 13.98 C-4.45 14.29, 1.65 14.59, 4.95 14.76 M-10.55 13.98 C-5.46 14.24, -0.36 14.49, 4.95 14.76 M4.95 14.76 C5.33 10.95, 5.71 7.14, 6.29 1.34 M4.95 14.76 C5.36 10.62, 5.78 6.48, 6.29 1.34 M6.29 1.34 C5.99 1.04, 5.69 0.75, 4.95 0 M6.29 1.34 C5.76 0.82, 5.24 0.29, 4.95 0" stroke="#000000" stroke-width="2" fill="none"></path></g></g><mask></mask><g stroke-linecap="round"><g transform="translate(457.8641994060679 223.70562366240398) rotate(0 38.17162281280196 0.20157051071672072)"><path d="M0.51 1.77 C13.75 2.39, 65.81 2.42, 79.01 2.05 M-2.66 0.26 C10.15 0.26, 62.79 -2.21, 76.18 -1.85" stroke="#000000" stroke-width="1" fill="none"></path></g><g transform="translate(457.8641994060679 223.70562366240398) rotate(0 38.17162281280196 0.20157051071672072)"><path d="M50.67 7.27 C59.17 5.16, 63.54 1.42, 77.96 -0.61 M46.34 8.2 C53.85 4.58, 63.24 4.08, 75.06 -3.23" stroke="#000000" stroke-width="1" fill="none"></path></g><g transform="translate(457.8641994060679 223.70562366240398) rotate(0 38.17162281280196 0.20157051071672072)"><path d="M50.37 -13.24 C58.7 -9.53, 63.16 -7.44, 77.96 -0.61 M46.04 -12.32 C53.59 -10.85, 63.05 -6.27, 75.06 -3.23" stroke="#000000" stroke-width="1" fill="none"></path></g></g><mask></mask><g stroke-linecap="round"><g transform="translate(355.89802224182995 227.64585608890326) rotate(0 -94.90735759139494 -0.6957628339186499)"><path d="M2.53 1.4 C-29.29 1.4, -159.74 -2.33, -192.35 -2.8 M0.46 -0.3 C-30.29 0.31, -155.39 -0.25, -186.7 0.1" stroke="#000000" stroke-width="1" fill="none"></path></g><g transform="translate(355.89802224182995 227.64585608890326) rotate(0 -94.90735759139494 -0.6957628339186499)"><path d="M-156.53 -12.22 C-167.7 -10.18, -172.69 -4.72, -188.7 3.57 M-157.22 -9.01 C-169.52 -4.65, -180.07 -2.43, -185.63 0.01" stroke="#000000" stroke-width="1" fill="none"></path></g><g transform="translate(355.89802224182995 227.64585608890326) rotate(0 -94.90735759139494 -0.6957628339186499)"><path d="M-156.47 8.3 C-167.25 5.23, -172.25 5.57, -188.7 3.57 M-157.17 11.51 C-169.89 7.77, -180.47 1.9, -185.63 0.01" stroke="#000000" stroke-width="1" fill="none"></path></g></g><mask></mask><g transform="translate(222.55927728662937 190.78339333825187) rotate(0 59.5 12)"><text x="0" y="20" font-family="Cascadia, Segoe UI Emoji" font-size="20px" fill="#000000" text-anchor="start" style="white-space: pre;" direction="ltr">subscribes</text></g><g transform="translate(10 464.5800877648471) rotate(0 305.5 19.5)"><text x="0" y="15.5" font-family="Cascadia, Segoe UI Emoji" font-size="16px" fill="#000000" text-anchor="start" style="white-space: pre;" direction="ltr">Lambda consumes messages in batches,</text><text x="0" y="35" font-family="Cascadia, Segoe UI Emoji" font-size="16px" fill="#000000" text-anchor="start" style="white-space: pre;" direction="ltr">starting at five concurrent batches with five functions at a time</text></g></svg>